<?xml version="1.0" encoding="UTF-8" standalone="no"?>
<svg
   xmlns:dc="http://purl.org/dc/elements/1.1/"
   xmlns:cc="http://creativecommons.org/ns#"
   xmlns:rdf="http://www.w3.org/1999/02/22-rdf-syntax-ns#"
   xmlns:svg="http://www.w3.org/2000/svg"
   xmlns="http://www.w3.org/2000/svg"
   xmlns:sodipodi="http://sodipodi.sourceforge.net/DTD/sodipodi-0.dtd"
   xmlns:inkscape="http://www.inkscape.org/namespaces/inkscape"
   width="210mm"
   height="297mm"
   viewBox="0 0 210 297"
   version="1.1"
   id="svg8"
   inkscape:version="1.0.1 (c497b03c, 2020-09-10)"
   sodipodi:docname="Lens.svg">
  <defs
     id="defs2" />
  <sodipodi:namedview
     id="base"
     pagecolor="#ffffff"
     bordercolor="#666666"
     borderopacity="1.0"
     inkscape:pageopacity="0.0"
     inkscape:pageshadow="2"
     inkscape:zoom="5.6"
     inkscape:cx="-40.820576"
     inkscape:cy="1125.3088"
     inkscape:document-units="mm"
     inkscape:current-layer="layer1"
     inkscape:document-rotation="0"
     showgrid="false"
     inkscape:window-width="1374"
     inkscape:window-height="1180"
     inkscape:window-x="83"
     inkscape:window-y="120"
     inkscape:window-maximized="0" />
  <metadata
     id="metadata5">
    <rdf:RDF>
      <cc:Work
         rdf:about="">
        <dc:format>image/svg+xml</dc:format>
        <dc:type
           rdf:resource="http://purl.org/dc/dcmitype/StillImage" />
        <dc:title></dc:title>
      </cc:Work>
    </rdf:RDF>
  </metadata>
  <g
     inkscape:label="Layer 1"
     inkscape:groupmode="layer"
     id="layer1">
    <path
       id="path764"
       style="fill:#000000;stroke-width:0.026684"
       d="m -0.91942434,316.05968 c -7.53202996,-0.41112 -18.38862666,-0.67842 -21.59191966,-4.5871 -5.921198,-8.49271 -7.74175,-15.37309 -7.74175,-15.37309 0,0 -3.68713,-10.3934 0.2667,-12.86368 7.37933,-3.58099 20.3517297,-5.74024 29.38829966,-5.87336 8.36841004,0.29282 16.76819034,1.20241 24.72805034,3.7539 3.1903,1.14852 6.3745,3.59358 6.70482,7.21401 0.7766,4.8899 0.0698,9.85665 -0.29929,14.74986 -0.50523,3.80963 -2.49743,7.86272 -6.3702,9.1653 -4.70383,1.87488 -9.81855,2.24576 -14.7609103,3.13519 -3.42287,0.43794 -6.87253,0.67672 -10.32380004,0.67897 z"
       sodipodi:nodetypes="ccccccccccc" />
  </g>
</svg>
