999
"DXF R12 Output" (www.mydxf.blogspot.com)
 0 
SECTION
 2 
HEADER
 9 
$ACADVER
 1 
AC1009
 9 
$EXTMIN
 10 
 0 
 20 
 0 
 9 
$EXTMAX
 10 
 8.5 
 20 
 11 
 0 
ENDSEC
 0 
SECTION
 2 
ENTITIES
0
LINE
8
Layer 1
10
0.000000
20
-139.700000
11
172.720000
21
-139.700000
0
LINE
8
Layer 1
10
172.720000
20
-139.700000
11
172.720000
21
83.820000
0
LINE
8
Layer 1
10
172.720000
20
83.820000
11
0.000000
21
83.820000
0
LINE
8
Layer 1
10
0.000000
20
83.820000
11
0.000000
21
-139.700000
0
LINE
8
Layer 1
10
0.000000
20
-139.700000
11
172.720000
21
-139.700000
0
LINE
8
Layer 1
10
172.720000
20
-139.700000
11
172.720000
21
83.820000
0
LINE
8
Layer 1
10
172.720000
20
83.820000
11
0.000000
21
83.820000
0
LINE
8
Layer 1
10
0.000000
20
83.820000
11
0.000000
21
-139.700000
0
LINE
8
Layer 1
10
0.000000
20
-139.700000
11
172.720000
21
-139.700000
0
LINE
8
Layer 1
10
172.720000
20
-139.700000
11
172.720000
21
83.820000
0
LINE
8
Layer 1
10
172.720000
20
83.820000
11
0.000000
21
83.820000
0
LINE
8
Layer 1
10
0.000000
20
83.820000
11
0.000000
21
-139.700000
0
LINE
8
Layer 1
10
0.000000
20
-139.700000
11
172.720000
21
-139.700000
0
LINE
8
Layer 1
10
172.720000
20
-139.700000
11
172.720000
21
83.820000
0
LINE
8
Layer 1
10
172.720000
20
83.820000
11
0.000000
21
83.820000
0
LINE
8
Layer 1
10
0.000000
20
83.820000
11
0.000000
21
-139.700000
0
LINE
8
Layer 1
10
30.178400
20
69.718400
11
31.924673
21
68.576633
0
LINE
8
Layer 1
10
31.924673
20
68.576633
11
33.574331
21
67.272721
0
LINE
8
Layer 1
10
33.574331
20
67.272721
11
36.685030
21
64.433870
0
LINE
8
Layer 1
10
36.685030
20
64.433870
11
37.541595
21
63.479896
0
LINE
8
Layer 1
10
37.541595
20
63.479896
11
38.224052
21
62.414870
0
LINE
8
Layer 1
10
38.224052
20
62.414870
11
38.732733
21
61.261881
0
LINE
8
Layer 1
10
38.732733
20
61.261881
11
39.067966
21
60.044016
0
LINE
8
Layer 1
10
39.067966
20
60.044016
11
39.230083
21
58.784364
0
LINE
8
Layer 1
10
39.230083
20
58.784364
11
39.219415
21
57.506012
0
LINE
8
Layer 1
10
39.219415
20
57.506012
11
39.036290
21
56.232048
0
LINE
8
Layer 1
10
39.036290
20
56.232048
11
38.681040
21
54.985560
0
LINE
8
Layer 1
10
38.681040
20
54.985560
11
37.733165
21
53.068229
0
LINE
8
Layer 1
10
37.733165
20
53.068229
11
37.633688
21
52.722911
0
LINE
8
Layer 1
10
37.633688
20
52.722911
11
37.715802
21
52.556602
0
LINE
8
Layer 1
10
37.715802
20
52.556602
11
38.042804
21
52.632005
0
LINE
8
Layer 1
10
38.042804
20
52.632005
11
38.677992
21
53.011820
0
LINE
8
Layer 1
10
38.677992
20
53.011820
11
39.714065
21
53.610300
0
LINE
8
Layer 1
10
39.714065
20
53.610300
11
40.814882
21
54.047348
0
LINE
8
Layer 1
10
40.814882
20
54.047348
11
41.964113
21
54.328711
0
LINE
8
Layer 1
10
41.964113
20
54.328711
11
43.145429
21
54.460137
0
LINE
8
Layer 1
10
43.145429
20
54.460137
11
45.538996
21
54.296170
0
LINE
8
Layer 1
10
45.538996
20
54.296170
11
47.864942
21
53.601433
0
LINE
8
Layer 1
10
47.864942
20
53.601433
11
48.986113
21
53.009616
0
LINE
8
Layer 1
10
48.986113
20
53.009616
11
49.966699
21
52.248948
0
LINE
8
Layer 1
10
49.966699
20
52.248948
11
50.796202
21
51.344150
0
LINE
8
Layer 1
10
50.796202
20
51.344150
11
51.464129
21
50.319943
0
LINE
8
Layer 1
10
51.464129
20
50.319943
11
51.959985
21
49.201049
0
LINE
8
Layer 1
10
51.959985
20
49.201049
11
52.273274
21
48.012188
0
LINE
8
Layer 1
10
52.273274
20
48.012188
11
52.393501
21
46.778083
0
LINE
8
Layer 1
10
52.393501
20
46.778083
11
52.310172
21
45.523453
0
LINE
8
Layer 1
10
52.310172
20
45.523453
11
51.764207
21
43.186702
0
LINE
8
Layer 1
10
51.764207
20
43.186702
11
50.792094
21
40.950513
0
LINE
8
Layer 1
10
50.792094
20
40.950513
11
50.138535
21
39.977285
0
LINE
8
Layer 1
10
50.138535
20
39.977285
11
49.369201
21
39.157784
0
LINE
8
Layer 1
10
49.369201
20
39.157784
11
48.481013
21
38.534873
0
LINE
8
Layer 1
10
48.481013
20
38.534873
11
47.470892
21
38.151413
0
LINE
8
Layer 1
10
47.470892
20
38.151413
11
46.802664
21
38.202815
0
LINE
8
Layer 1
10
46.802664
20
38.202815
11
46.223776
21
38.616448
0
LINE
8
Layer 1
10
46.223776
20
38.616448
11
45.148221
21
40.053289
0
LINE
8
Layer 1
10
45.148221
20
40.053289
11
44.558655
21
40.837938
0
LINE
8
Layer 1
10
44.558655
20
40.837938
11
43.872632
21
41.507702
0
LINE
8
Layer 1
10
43.872632
20
41.507702
11
43.043700
21
41.943300
0
LINE
8
Layer 1
10
43.043700
20
41.943300
11
42.025412
21
42.025453
0
LINE
8
Layer 1
10
42.025412
20
42.025453
11
41.091409
21
41.832304
0
LINE
8
Layer 1
10
41.091409
20
41.832304
11
40.188326
21
41.487404
0
LINE
8
Layer 1
10
40.188326
20
41.487404
11
39.345583
21
41.007004
0
LINE
8
Layer 1
10
39.345583
20
41.007004
11
38.592600
21
40.407354
0
LINE
8
Layer 1
10
38.592600
20
40.407354
11
37.958796
21
39.704707
0
LINE
8
Layer 1
10
37.958796
20
39.704707
11
37.473592
21
38.915311
0
LINE
8
Layer 1
10
37.473592
20
38.915311
11
37.166407
21
38.055420
0
LINE
8
Layer 1
10
37.166407
20
38.055420
11
37.066662
21
37.141283
0
LINE
8
Layer 1
10
37.066662
20
37.141283
11
37.153722
21
35.056297
0
LINE
8
Layer 1
10
37.153722
20
35.056297
11
37.073379
21
33.020653
0
LINE
8
Layer 1
10
37.073379
20
33.020653
11
37.029767
21
32.173035
0
LINE
8
Layer 1
10
37.029767
20
32.173035
11
37.166940
21
31.322212
0
LINE
8
Layer 1
10
37.166940
20
31.322212
11
37.473284
21
30.516112
0
LINE
8
Layer 1
10
37.473284
20
30.516112
11
37.937188
21
29.802663
0
LINE
8
Layer 1
10
37.937188
20
29.802663
11
38.547039
21
29.229792
0
LINE
8
Layer 1
10
38.547039
20
29.229792
11
39.291224
21
28.845426
0
LINE
8
Layer 1
10
39.291224
20
28.845426
11
40.158132
21
28.697494
0
LINE
8
Layer 1
10
40.158132
20
28.697494
11
41.136149
21
28.833923
0
LINE
8
Layer 1
10
41.136149
20
28.833923
11
42.131655
21
28.893094
0
LINE
8
Layer 1
10
42.131655
20
28.893094
11
42.743135
21
28.466656
0
LINE
8
Layer 1
10
42.743135
20
28.466656
11
43.023659
21
27.683080
0
LINE
8
Layer 1
10
43.023659
20
27.683080
11
43.026297
21
26.670833
0
LINE
8
Layer 1
10
43.026297
20
26.670833
11
42.804118
21
25.558384
0
LINE
8
Layer 1
10
42.804118
20
25.558384
11
42.410192
21
24.474202
0
LINE
8
Layer 1
10
42.410192
20
24.474202
11
41.897588
21
23.546755
0
LINE
8
Layer 1
10
41.897588
20
23.546755
11
41.319376
21
22.904513
0
LINE
8
Layer 1
10
41.319376
20
22.904513
11
40.493368
21
22.529095
0
LINE
8
Layer 1
10
40.493368
20
22.529095
11
39.588047
21
22.515103
0
LINE
8
Layer 1
10
39.588047
20
22.515103
11
38.642853
21
22.744991
0
LINE
8
Layer 1
10
38.642853
20
22.744991
11
37.697223
21
23.101214
0
LINE
8
Layer 1
10
37.697223
20
23.101214
11
35.962418
21
23.722477
0
LINE
8
Layer 1
10
35.962418
20
23.722477
11
35.252121
21
23.752427
0
LINE
8
Layer 1
10
35.252121
20
23.752427
11
34.699146
21
23.438528
0
LINE
8
Layer 1
10
34.699146
20
23.438528
11
34.114221
21
22.584510
0
LINE
8
Layer 1
10
34.114221
20
22.584510
11
33.690479
21
21.619527
0
LINE
8
Layer 1
10
33.690479
20
21.619527
11
33.074313
21
19.560326
0
LINE
8
Layer 1
10
33.074313
20
19.560326
11
32.346192
21
17.668243
0
LINE
8
Layer 1
10
32.346192
20
17.668243
11
31.782504
21
16.912158
0
LINE
8
Layer 1
10
31.782504
20
16.912158
11
31.001656
21
16.350598
0
LINE
8
Layer 1
10
31.001656
20
16.350598
11
30.299379
21
16.216778
0
LINE
8
Layer 1
10
30.299379
20
16.216778
11
29.638015
21
16.467061
0
LINE
8
Layer 1
10
29.638015
20
16.467061
11
29.017915
21
17.013924
0
LINE
8
Layer 1
10
29.017915
20
17.013924
11
28.439430
21
17.769849
0
LINE
8
Layer 1
10
28.439430
20
17.769849
11
27.408700
21
19.558799
0
LINE
8
Layer 1
10
27.408700
20
19.558799
11
26.548626
21
21.133748
0
LINE
8
Layer 1
10
26.548626
20
21.133748
11
26.358105
21
21.922467
0
LINE
8
Layer 1
10
26.358105
20
21.922467
11
26.262528
21
22.894203
0
LINE
8
Layer 1
10
26.262528
20
22.894203
11
25.997577
21
23.518091
0
LINE
8
Layer 1
10
25.997577
20
23.518091
11
25.718987
21
23.533697
0
LINE
8
Layer 1
10
25.718987
20
23.533697
11
25.298936
21
23.263268
0
LINE
8
Layer 1
10
25.298936
20
23.263268
11
24.346897
21
22.645798
0
LINE
8
Layer 1
10
24.346897
20
22.645798
11
23.246066
21
22.275032
0
LINE
8
Layer 1
10
23.246066
20
22.275032
11
22.069921
21
22.151796
0
LINE
8
Layer 1
10
22.069921
20
22.151796
11
20.891937
21
22.276918
0
LINE
8
Layer 1
10
20.891937
20
22.276918
11
19.785592
21
22.651223
0
LINE
8
Layer 1
10
19.785592
20
22.651223
11
18.824363
21
23.275539
0
LINE
8
Layer 1
10
18.824363
20
23.275539
11
18.081725
21
24.150692
0
LINE
8
Layer 1
10
18.081725
20
24.150692
11
17.631156
21
25.277508
0
LINE
8
Layer 1
10
17.631156
20
25.277508
11
17.496002
21
26.693406
0
LINE
8
Layer 1
10
17.496002
20
26.693406
11
17.750885
21
28.067009
0
LINE
8
Layer 1
10
17.750885
20
28.067009
11
18.072000
21
28.563490
0
LINE
8
Layer 1
10
18.072000
20
28.563490
11
18.547515
21
28.840044
0
LINE
8
Layer 1
10
18.547515
20
28.840044
11
19.196396
21
28.826888
0
LINE
8
Layer 1
10
19.196396
20
28.826888
11
20.037606
21
28.454238
0
LINE
8
Layer 1
10
20.037606
20
28.454238
11
20.855064
21
28.180076
0
LINE
8
Layer 1
10
20.855064
20
28.180076
11
21.578305
21
28.345274
0
LINE
8
Layer 1
10
21.578305
20
28.345274
11
22.197347
21
28.855275
0
LINE
8
Layer 1
10
22.197347
20
28.855275
11
22.702210
21
29.615523
0
LINE
8
Layer 1
10
22.702210
20
29.615523
11
23.082911
21
30.531461
0
LINE
8
Layer 1
10
23.082911
20
30.531461
11
23.329470
21
31.508534
0
LINE
8
Layer 1
10
23.329470
20
31.508534
11
23.431905
21
32.452185
0
LINE
8
Layer 1
10
23.431905
20
32.452185
11
23.380236
21
33.267858
0
LINE
8
Layer 1
10
23.380236
20
33.267858
11
23.319364
21
34.313384
0
LINE
8
Layer 1
10
23.319364
20
34.313384
11
23.409551
21
35.371192
0
LINE
8
Layer 1
10
23.409551
20
35.371192
11
23.491663
21
36.422683
0
LINE
8
Layer 1
10
23.491663
20
36.422683
11
23.406567
21
37.449258
0
LINE
8
Layer 1
10
23.406567
20
37.449258
11
23.077831
21
38.391593
0
LINE
8
Layer 1
10
23.077831
20
38.391593
11
22.549897
21
39.230719
0
LINE
8
Layer 1
10
22.549897
20
39.230719
11
21.855607
21
39.960077
0
LINE
8
Layer 1
10
21.855607
20
39.960077
11
21.027805
21
40.573112
0
LINE
8
Layer 1
10
21.027805
20
40.573112
11
19.103039
21
41.423983
0
LINE
8
Layer 1
10
19.103039
20
41.423983
11
17.038347
21
41.730878
0
LINE
8
Layer 1
10
17.038347
20
41.730878
11
16.194173
21
41.550187
0
LINE
8
Layer 1
10
16.194173
20
41.550187
11
15.528073
21
41.068580
0
LINE
8
Layer 1
10
15.528073
20
41.068580
11
14.547402
21
39.662319
0
LINE
8
Layer 1
10
14.547402
20
39.662319
11
13.730951
21
38.431498
0
LINE
8
Layer 1
10
13.730951
20
38.431498
11
13.270126
21
38.169190
0
LINE
8
Layer 1
10
13.270126
20
38.169190
11
12.713337
21
38.295518
0
LINE
8
Layer 1
10
12.713337
20
38.295518
11
11.539934
21
39.109193
0
LINE
8
Layer 1
10
11.539934
20
39.109193
11
10.491977
21
40.108734
0
LINE
8
Layer 1
10
10.491977
20
40.108734
11
9.593033
21
41.265289
0
LINE
8
Layer 1
10
9.593033
20
41.265289
11
8.866667
21
42.550004
0
LINE
8
Layer 1
10
8.866667
20
42.550004
11
8.336445
21
43.934028
0
LINE
8
Layer 1
10
8.336445
20
43.934028
11
8.025932
21
45.388507
0
LINE
8
Layer 1
10
8.025932
20
45.388507
11
7.958694
21
46.884588
0
LINE
8
Layer 1
10
7.958694
20
46.884588
11
8.158297
21
48.393418
0
LINE
8
Layer 1
10
8.158297
20
48.393418
11
8.724688
21
49.991275
0
LINE
8
Layer 1
10
8.724688
20
49.991275
11
9.613622
21
51.362602
0
LINE
8
Layer 1
10
9.613622
20
51.362602
11
10.769708
21
52.497330
0
LINE
8
Layer 1
10
10.769708
20
52.497330
11
12.137553
21
53.385389
0
LINE
8
Layer 1
10
12.137553
20
53.385389
11
13.661767
21
54.016711
0
LINE
8
Layer 1
10
13.661767
20
54.016711
11
15.286957
21
54.381226
0
LINE
8
Layer 1
10
15.286957
20
54.381226
11
16.957731
21
54.468865
0
LINE
8
Layer 1
10
16.957731
20
54.468865
11
18.618697
21
54.269558
0
LINE
8
Layer 1
10
18.618697
20
54.269558
11
20.775783
21
53.485618
0
LINE
8
Layer 1
10
20.775783
20
53.485618
11
21.693056
21
53.146357
0
LINE
8
Layer 1
10
21.693056
20
53.146357
11
21.949125
21
53.101379
0
LINE
8
Layer 1
10
21.949125
20
53.101379
11
22.008337
21
53.181968
0
LINE
8
Layer 1
10
22.008337
20
53.181968
11
21.560140
21
54.761945
0
LINE
8
Layer 1
10
21.560140
20
54.761945
11
21.316749
21
56.390419
0
LINE
8
Layer 1
10
21.316749
20
56.390419
11
21.285182
21
58.033269
0
LINE
8
Layer 1
10
21.285182
20
58.033269
11
21.472455
21
59.656377
0
LINE
8
Layer 1
10
21.472455
20
59.656377
11
21.885587
21
61.225620
0
LINE
8
Layer 1
10
21.885587
20
61.225620
11
22.531595
21
62.706880
0
LINE
8
Layer 1
10
22.531595
20
62.706880
11
23.417496
21
64.066036
0
LINE
8
Layer 1
10
23.417496
20
64.066036
11
24.550307
21
65.268968
0
LINE
8
Layer 1
10
24.550307
20
65.268968
11
27.187508
21
67.761567
0
LINE
8
Layer 1
10
27.187508
20
67.761567
11
28.605399
21
68.886944
0
LINE
8
Layer 1
10
28.605399
20
68.886944
11
30.178417
21
69.718448
0
LINE
8
Layer 1
10
30.178417
20
69.718448
11
30.178431
21
69.718448
0
LINE
8
Layer 1
10
30.178431
20
69.718448
11
30.178400
21
69.718400
 0 
ENDSEC
 0 
EOF