<?xml version="1.0" encoding="UTF-8" standalone="no"?>
<svg
   xmlns:dc="http://purl.org/dc/elements/1.1/"
   xmlns:cc="http://creativecommons.org/ns#"
   xmlns:rdf="http://www.w3.org/1999/02/22-rdf-syntax-ns#"
   xmlns:svg="http://www.w3.org/2000/svg"
   xmlns="http://www.w3.org/2000/svg"
   xmlns:sodipodi="http://sodipodi.sourceforge.net/DTD/sodipodi-0.dtd"
   xmlns:inkscape="http://www.inkscape.org/namespaces/inkscape"
   width="210mm"
   height="297mm"
   viewBox="0 0 210 297"
   version="1.1"
   id="svg8"
   sodipodi:docname="LiliomEgyedul.svg"
   inkscape:version="1.0.1 (c497b03c, 2020-09-10)">
  <defs
     id="defs2">
    <clipPath
       clipPathUnits="userSpaceOnUse"
       id="clipPath1342">
      <path
         d="M 0,792 H 612 V 0 H 0 Z"
         id="path1340" />
    </clipPath>
    <clipPath
       clipPathUnits="userSpaceOnUse"
       id="clipPath1588">
      <path
         d="M 0,792 H 612 V 0 H 0 Z"
         id="path1586" />
    </clipPath>
    <clipPath
       clipPathUnits="userSpaceOnUse"
       id="clipPath1900">
      <path
         d="M 0,792 H 612 V 0 H 0 Z"
         id="path1898" />
    </clipPath>
    <clipPath
       clipPathUnits="userSpaceOnUse"
       id="clipPath2224">
      <path
         d="M 0,792 H 612 V 0 H 0 Z"
         id="path2222" />
    </clipPath>
  </defs>
  <sodipodi:namedview
     id="base"
     pagecolor="#ffffff"
     bordercolor="#666666"
     borderopacity="1.0"
     inkscape:pageopacity="0.0"
     inkscape:pageshadow="2"
     inkscape:zoom="0.37083162"
     inkscape:cx="388.26617"
     inkscape:cy="531.31215"
     inkscape:document-units="mm"
     inkscape:current-layer="layer1"
     inkscape:document-rotation="0"
     showgrid="false"
     inkscape:window-width="1440"
     inkscape:window-height="872"
     inkscape:window-x="0"
     inkscape:window-y="0"
     inkscape:window-maximized="1" />
  <metadata
     id="metadata5">
    <rdf:RDF>
      <cc:Work
         rdf:about="">
        <dc:format>image/svg+xml</dc:format>
        <dc:type
           rdf:resource="http://purl.org/dc/dcmitype/StillImage" />
        <dc:title></dc:title>
      </cc:Work>
    </rdf:RDF>
  </metadata>
  <g
     inkscape:label="Layer 1"
     inkscape:groupmode="layer"
     id="layer1">
    <path
       style="fill:#4d4d4d;stroke:none;stroke-width:1;stroke-linecap:round;stroke-linejoin:round"
       d="m 106.93151,49.966202 c 0.0592,5.3e-4 0.11803,0.004 0.17622,0.009 v 10e-4 c 0.2843,0.0271 0.53555,0.10485 0.76688,0.24443 2.57653,1.54197 8.1053,6.02279 12.42146,9.70122 5.61246,4.78355 9.82593,8.70424 11.27321,10.48721 4.78682,5.89838 7.29759,11.76691 7.67344,17.94154 0.3791,6.202 -1.27824,12.901848 -5.21209,21.087598 -0.37909,0.7887 -0.70584,1.48494 -0.9741,2.08256 0.78549,-0.4514 1.69565,-0.98475 2.64015,-1.56476 7.08545,-4.34991 16.24522,-6.81536 22.28494,-5.99292 12.60634,1.71881 21.42499,7.28034 25.50181,16.08946 3.13616,6.77394 2.79621,17.70612 -0.76946,24.89047 -1.24972,2.51869 -4.08784,6.40885 -7.59282,10.41177 -1.58543,1.81191 -3.08841,3.37476 -4.34134,4.52014 -0.68107,0.61998 -1.24041,1.10593 -1.75286,1.45624 -0.56704,0.38765 -1.05432,0.68264 -1.71773,0.68264 -0.62322,0 -1.01936,-0.34855 -1.233,-0.53692 -0.2538,-0.22345 -0.49509,-0.49891 -0.76016,-0.87023 -0.4851,-0.67303 -0.94903,-1.53464 -1.341,-2.48718 -2.22795,-5.39561 -5.29628,-8.20742 -10.26139,-9.40253 -6.80754,-1.64164 -11.86455,-0.0997 -16.90181,5.15783 -2.92672,3.05683 -4.33532,5.39159 -5.02605,8.33437 -0.22672,0.96887 -0.3561,2.04973 -0.447,3.18792 0.55927,1.96145 0.87798,4.01798 0.87798,6.1464 0,0.62803 -0.0344,1.19513 -0.0873,1.72702 v 5.85184 c 0,0.44978 -0.33445,0.8077 -0.76688,0.8754 0.42127,6.19896 1.62802,9.70694 4.30103,12.89637 1.2192,1.45367 2.05932,2.14153 3.807,2.36988 1.92756,0.25219 5.06823,-0.1862 9.19324,-0.92036 0.85937,-0.15387 1.72045,0.0861 2.33887,0.66611 0.5124,0.4739 0.90151,1.18384 1.16014,2.10582 0.40478,1.44568 0.46585,3.40528 0.17673,5.826 -0.48029,4.03666 -2.02634,9.32369 -4.92735,12.05922 -2.52994,2.3854 -6.27249,3.64731 -10.82156,3.64731 -4.329,0 -7.6984,-1.82928 -10.40505,-3.29901 l -0.11989,-0.0703 c -1.13565,-0.53806 -2.18469,-1.15824 -3.09386,-1.82158 l -0.0755,1.69653 c -0.19275,4.02699 -1.06664,7.2724 -3.02152,11.19828 -1.57901,3.17249 -4.06419,6.7545 -6.64714,9.58805 -1.27862,1.4038 -2.41534,2.45475 -3.37912,3.12486 -0.54936,0.38235 -1.05333,0.63953 -1.53841,0.78859 -0.25862,0.0813 -0.51154,0.11473 -0.75086,0.11473 -0.40948,0 -0.78556,-0.11224 -1.09399,-0.33176 -0.59273,-0.42566 -1.35936,-1.25471 -2.32957,-2.36472 -0.94451,-1.081 -2.08483,-2.45623 -3.29438,-3.97909 -2.01752,-2.54275 -4.49789,-5.8555 -5.40225,-7.52925 -0.85457,-1.58065 -1.93729,-5.24166 -2.57659,-8.70646 l -0.75292,-4.12221 -3.06855,2.03502 c -4.13303,2.78537 -9.38059,3.93311 -14.3955,3.16053 -5.1145,-0.79357 -9.19613,-3.48295 -11.20242,-7.38145 -0.85937,-1.66572 -1.31268,-4.54285 -1.24695,-7.89204 0.0321,-1.5003 0.17843,-2.96357 0.42581,-4.2261 0.28914,-1.47779 0.66597,-2.4995 1.18804,-3.21428 0.37913,-0.52024 0.64929,-0.88448 0.95292,-1.18804 0.44655,-0.45091 0.92433,-0.69792 1.41903,-0.72501 0.63772,-0.0224 1.13883,0.26432 1.46813,0.49402 0.29556,0.20571 0.58927,0.47437 0.9555,0.80977 l 0.25166,0.22996 c 1.09551,0.99258 2.98421,1.56015 4.89893,1.46864 1.94525,-0.0915 3.71217,-0.80742 4.72736,-1.91099 3.26328,-3.54651 4.66572,-7.6053 5.0493,-14.61409 -0.39258,-0.0974 -0.68936,-0.43607 -0.68936,-0.85887 v -5.852 c -0.0532,-0.5317 -0.0873,-1.0989 -0.0873,-1.72702 0,-1.66765 0.19781,-3.28953 0.54622,-4.85914 -0.19551,-1.75947 -0.47752,-3.14692 -0.90589,-4.30361 -0.97503,-2.63273 -2.7537,-4.59856 -5.91333,-7.52047 -5.28315,-4.88988 -12.78825,-7.03623 -18.24488,-5.23069 -1.7541,0.58143 -3.72608,1.92061 -5.40949,3.67316 -1.66576,1.73643 -2.90656,3.74295 -3.31297,5.37177 -0.19598,0.78226 -0.50768,1.52793 -0.8754,2.10116 -0.20395,0.31616 -0.41956,0.57068 -0.65888,0.77463 -0.25218,0.21683 -0.61238,0.46612 -1.12964,0.46612 -0.67465,0 -1.21661,-0.32158 -1.80455,-0.70848 -0.55898,-0.36948 -1.21322,-0.88686 -1.88463,-1.49397 -1.25775,-1.13408 -2.76337,-2.7083 -4.4757,-4.68242 -3.5901,-4.13951 -6.45308,-8.19337 -7.66103,-10.84534 -4.51212,-9.8885 -3.54621,-20.69313 2.57865,-28.90624 6.12326,-8.20824 16.3865,-12.49129 27.48773,-11.45202 6.39473,0.59919 13.57453,3.08168 17.45216,5.95054 -0.16709,-0.39673 -0.35659,-0.83598 -0.56223,-1.31774 -4.29368,-10.055518 -3.81171,-23.261038 1.13894,-32.998508 2.08981,-4.1154 8.73256,-10.98574 14.25185,-16.04243 3.0263,-2.77732 6.03995,-5.26351 8.48475,-7.00474 1.35572,-0.9686 2.37388,-1.60663 3.20756,-2.00504 0.44496,-0.21005 0.87906,-0.40593 1.32239,-0.49403 0.18433,-0.0335 0.36602,-0.051 0.54364,-0.0491 z"
       id="path853" />
  </g>
</svg>
