  0
SECTION
  2
BLOCKS
  0
ENDSEC
  0
SECTION
  2
ENTITIES
  0
LINE
  8
0
 10
-38.197
 11
-37.97
 20
26.715
 21
26.798
  0
LINE
  8
0
 10
-37.97
 11
-37.322
 20
26.798
 21
26.825
  0
LINE
  8
0
 10
-37.322
 11
-37.162
 20
26.825
 21
26.825
  0
LINE
  8
0
 10
-37.162
 11
-37.36
 20
26.825
 21
26.971
  0
LINE
  8
0
 10
-37.36
 11
-37.536
 20
26.971
 21
27.1
  0
LINE
  8
0
 10
-37.536
 11
-37.711
 20
27.1
 21
27.23
  0
LINE
  8
0
 10
-37.711
 11
-22.232
 20
27.23
 21
27.23
  0
LINE
  8
0
 10
-22.232
 11
-21.907
 20
27.23
 21
27.31
  0
LINE
  8
0
 10
-21.907
 11
-21.479
 20
27.31
 21
27.456
  0
LINE
  8
0
 10
-21.479
 11
-20.923
 20
27.456
 21
27.686
  0
LINE
  8
0
 10
-20.923
 11
-20.595
 20
27.686
 21
27.814
  0
LINE
  8
0
 10
-20.595
 11
-20.284
 20
27.814
 21
27.918
  0
LINE
  8
0
 10
-20.284
 11
-20.029
 20
27.918
 21
27.989
  0
LINE
  8
0
 10
-20.029
 11
-19.861
 20
27.989
 21
28.015
  0
LINE
  8
0
 10
-19.861
 11
-19.467
 20
28.015
 21
28.145
  0
LINE
  8
0
 10
-19.467
 11
-19.418
 20
28.145
 21
28.168
  0
LINE
  8
0
 10
-19.418
 11
-18.914
 20
28.168
 21
28.466
  0
LINE
  8
0
 10
-18.914
 11
-18.805
 20
28.466
 21
28.547
  0
LINE
  8
0
 10
-18.805
 11
-18.617
 20
28.547
 21
28.693
  0
LINE
  8
0
 10
-18.617
 11
-18.607
 20
28.693
 21
28.998
  0
LINE
  8
0
 10
-18.607
 11
-18.815
 20
28.998
 21
29.071
  0
LINE
  8
0
 10
-18.815
 11
-19.294
 20
29.071
 21
29.178
  0
LINE
  8
0
 10
-19.294
 11
-19.971
 20
29.178
 21
29.306
  0
LINE
  8
0
 10
-19.971
 11
-20.777
 20
29.306
 21
29.44
  0
LINE
  8
0
 10
-20.777
 11
-22.98
 20
29.44
 21
29.893
  0
LINE
  8
0
 10
-22.98
 11
-25.536
 20
29.893
 21
30.639
  0
LINE
  8
0
 10
-25.536
 11
-28.623
 20
30.639
 21
31.738
  0
LINE
  8
0
 10
-28.623
 11
-32.424
 20
31.738
 21
33.249
  0
LINE
  8
0
 10
-32.424
 11
-33.609
 20
33.249
 21
33.737
  0
LINE
  8
0
 10
-33.609
 11
-34.793
 20
33.737
 21
34.224
  0
LINE
  8
0
 10
-34.793
 11
-35.978
 20
34.224
 21
34.712
  0
LINE
  8
0
 10
-35.978
 11
-37.162
 20
34.712
 21
35.2
  0
LINE
  8
0
 10
-37.162
 11
-35.98
 20
35.2
 21
35.351
  0
LINE
  8
0
 10
-35.98
 11
-36.283
 20
35.351
 21
35.479
  0
LINE
  8
0
 10
-36.283
 11
-34.959
 20
35.479
 21
35.635
  0
LINE
  8
0
 10
-34.959
 11
-33.636
 20
35.635
 21
35.792
  0
LINE
  8
0
 10
-33.636
 11
-32.312
 20
35.792
 21
35.948
  0
LINE
  8
0
 10
-32.312
 11
-30.988
 20
35.948
 21
36.104
  0
LINE
  8
0
 10
-30.988
 11
-26.278
 20
36.104
 21
36.69
  0
LINE
  8
0
 10
-26.278
 11
-22.661
 20
36.69
 21
37.205
  0
LINE
  8
0
 10
-22.661
 11
-20.047
 20
37.205
 21
37.665
  0
LINE
  8
0
 10
-20.047
 11
-18.345
 20
37.665
 21
38.084
  0
LINE
  8
0
 10
-18.345
 11
-16.933
 20
38.084
 21
38.631
  0
LINE
  8
0
 10
-16.933
 11
-16.746
 20
38.631
 21
38.868
  0
LINE
  8
0
 10
-16.746
 11
-16.975
 20
38.868
 21
39.096
  0
LINE
  8
0
 10
-16.975
 11
-18.334
 20
39.096
 21
39.586
  0
LINE
  8
0
 10
-18.334
 11
-20.368
 20
39.586
 21
40.188
  0
LINE
  8
0
 10
-20.368
 11
-21.58
 20
40.188
 21
40.578
  0
LINE
  8
0
 10
-21.58
 11
-22.231
 20
40.578
 21
40.848
  0
LINE
  8
0
 10
-22.231
 11
-22.579
 20
40.848
 21
41.091
  0
LINE
  8
0
 10
-22.579
 11
-23
 20
41.091
 21
41.361
  0
LINE
  8
0
 10
-23
 11
-23.882
 20
41.361
 21
41.853
  0
LINE
  8
0
 10
-23.882
 11
-25.097
 20
41.853
 21
42.498
  0
LINE
  8
0
 10
-25.097
 11
-26.513
 20
42.498
 21
43.224
  0
LINE
  8
0
 10
-26.513
 11
-27.894
 20
43.224
 21
43.93
  0
LINE
  8
0
 10
-27.894
 11
-29.014
 20
43.93
 21
44.518
  0
LINE
  8
0
 10
-29.014
 11
-29.757
 20
44.518
 21
44.928
  0
LINE
  8
0
 10
-29.757
 11
-30.01
 20
44.928
 21
45.097
  0
LINE
  8
0
 10
-30.01
 11
-29.625
 20
45.097
 21
45.151
  0
LINE
  8
0
 10
-29.625
 11
-28.635
 20
45.151
 21
45.247
  0
LINE
  8
0
 10
-28.635
 11
-27.19
 20
45.247
 21
45.37
  0
LINE
  8
0
 10
-27.19
 11
-25.441
 20
45.37
 21
45.508
  0
LINE
  8
0
 10
-25.441
 11
-24.144
 20
45.508
 21
45.619
  0
LINE
  8
0
 10
-24.144
 11
-23.95
 20
45.619
 21
45.636
  0
LINE
  8
0
 10
-23.95
 11
-22.299
 20
45.636
 21
45.796
  0
LINE
  8
0
 10
-22.299
 11
-21.752
 20
45.796
 21
45.852
  0
LINE
  8
0
 10
-21.752
 11
-21.347
 20
45.852
 21
45.899
  0
LINE
  8
0
 10
-21.347
 11
-20.085
 20
45.899
 21
46.051
  0
LINE
  8
0
 10
-20.085
 11
-18.958
 20
46.051
 21
46.224
  0
LINE
  8
0
 10
-18.958
 11
-17.426
 20
46.224
 21
46.569
  0
LINE
  8
0
 10
-17.426
 11
-16.136
 20
46.569
 21
46.967
  0
LINE
  8
0
 10
-16.136
 11
-15.248
 20
46.967
 21
47.358
  0
LINE
  8
0
 10
-15.248
 11
-14.92
 20
47.358
 21
47.686
  0
LINE
  8
0
 10
-14.92
 11
-15.28
 20
47.686
 21
47.862
  0
LINE
  8
0
 10
-15.28
 11
-16.256
 20
47.862
 21
48.177
  0
LINE
  8
0
 10
-16.256
 11
-17.701
 20
48.177
 21
48.584
  0
LINE
  8
0
 10
-17.701
 11
-19.463
 20
48.584
 21
49.041
  0
LINE
  8
0
 10
-19.463
 11
-21.233
 20
49.041
 21
49.503
  0
LINE
  8
0
 10
-21.233
 11
-22.697
 20
49.503
 21
49.927
  0
LINE
  8
0
 10
-22.697
 11
-23.701
 20
49.927
 21
50.266
  0
LINE
  8
0
 10
-23.701
 11
-24.096
 20
50.266
 21
50.473
  0
LINE
  8
0
 10
-24.096
 11
-23.897
 20
50.473
 21
50.697
  0
LINE
  8
0
 10
-23.897
 11
-23.286
 20
50.697
 21
51.083
  0
LINE
  8
0
 10
-23.286
 11
-22.356
 20
51.083
 21
51.577
  0
LINE
  8
0
 10
-22.356
 11
-21.203
 20
51.577
 21
52.124
  0
LINE
  8
0
 10
-21.203
 11
-16.452
 20
52.124
 21
54.314
  0
LINE
  8
0
 10
-16.452
 11
-13.58
 20
54.314
 21
55.76
  0
LINE
  8
0
 10
-13.58
 11
-12.457
 20
55.76
 21
56.527
  0
LINE
  8
0
 10
-12.457
 11
-12.712
 20
56.527
 21
56.714
  0
LINE
  8
0
 10
-12.712
 11
-12.986
 20
56.714
 21
56.844
  0
LINE
  8
0
 10
-12.986
 11
-13.904
 20
56.844
 21
57.032
  0
LINE
  8
0
 10
-13.904
 11
-15.839
 20
57.032
 21
57.585
  0
LINE
  8
0
 10
-15.839
 11
-17.899
 20
57.585
 21
58.253
  0
LINE
  8
0
 10
-17.899
 11
-18.611
 20
58.253
 21
58.524
  0
LINE
  8
0
 10
-18.611
 11
-19.753
 20
58.524
 21
58.894
  0
LINE
  8
0
 10
-19.753
 11
-20.401
 20
58.894
 21
59.194
  0
LINE
  8
0
 10
-20.401
 11
-20.294
 20
59.194
 21
59.231
  0
LINE
  8
0
 10
-20.294
 11
-20.354
 20
59.231
 21
59.258
  0
LINE
  8
0
 10
-20.354
 11
-20.669
 20
59.258
 21
59.402
  0
LINE
  8
0
 10
-20.669
 11
-19.609
 20
59.402
 21
59.703
  0
LINE
  8
0
 10
-19.609
 11
-18.549
 20
59.703
 21
60.003
  0
LINE
  8
0
 10
-18.549
 11
-17.489
 20
60.003
 21
60.303
  0
LINE
  8
0
 10
-17.489
 11
-16.429
 20
60.303
 21
60.604
  0
LINE
  8
0
 10
-16.429
 11
-13.049
 20
60.604
 21
61.59
  0
LINE
  8
0
 10
-13.049
 11
-10.859
 20
61.59
 21
62.32
  0
LINE
  8
0
 10
-10.859
 11
-9.516
 20
62.32
 21
62.924
  0
LINE
  8
0
 10
-9.516
 11
-8.673
 20
62.924
 21
63.53
  0
LINE
  8
0
 10
-8.673
 11
-8.382
 20
63.53
 21
63.813
  0
LINE
  8
0
 10
-8.382
 11
-8.156
 20
63.813
 21
64.057
  0
LINE
  8
0
 10
-8.156
 11
-8.019
 20
64.057
 21
64.238
  0
LINE
  8
0
 10
-8.019
 11
-8.009
 20
64.238
 21
64.27
  0
LINE
  8
0
 10
-8.009
 11
-8.085
 20
64.27
 21
64.295
  0
LINE
  8
0
 10
-8.085
 11
-8.791
 20
64.295
 21
64.369
  0
LINE
  8
0
 10
-8.791
 11
-9.838
 20
64.369
 21
64.425
  0
LINE
  8
0
 10
-9.838
 11
-11.118
 20
64.425
 21
64.455
  0
LINE
  8
0
 10
-11.118
 11
-14.327
 20
64.455
 21
64.532
  0
LINE
  8
0
 10
-14.327
 11
-15.428
 20
64.532
 21
64.845
  0
LINE
  8
0
 10
-15.428
 11
-15.181
 20
64.845
 21
65.048
  0
LINE
  8
0
 10
-15.181
 11
-15.459
 20
65.048
 21
65.26
  0
LINE
  8
0
 10
-15.459
 11
-15.124
 20
65.26
 21
65.619
  0
LINE
  8
0
 10
-15.124
 11
-13.91
 20
65.619
 21
66.302
  0
LINE
  8
0
 10
-13.91
 11
-11.557
 20
66.302
 21
67.485
  0
LINE
  8
0
 10
-11.557
 11
-9.347
 20
67.485
 21
68.614
  0
LINE
  8
0
 10
-9.347
 11
-7.79
 20
68.614
 21
69.506
  0
LINE
  8
0
 10
-7.79
 11
-6.666
 20
69.506
 21
70.299
  0
LINE
  8
0
 10
-6.666
 11
-5.754
 20
70.299
 21
71.131
  0
LINE
  8
0
 10
-5.754
 11
-4.52
 20
71.131
 21
72.52
  0
LINE
  8
0
 10
-4.52
 11
-3.405
 20
72.52
 21
73.995
  0
LINE
  8
0
 10
-3.405
 11
-2.597
 20
73.995
 21
75.282
  0
LINE
  8
0
 10
-2.597
 11
-2.436
 20
75.282
 21
75.711
  0
LINE
  8
0
 10
-2.436
 11
-4.827
 20
75.711
 21
75.711
  0
LINE
  8
0
 10
-4.827
 11
-4.838
 20
75.711
 21
75.791
  0
LINE
  8
0
 10
-4.838
 11
-5.215
 20
75.791
 21
75.791
  0
LINE
  8
0
 10
-5.215
 11
-5.321
 20
75.791
 21
76.097
  0
LINE
  8
0
 10
-5.321
 11
-5.248
 20
76.097
 21
76.769
  0
LINE
  8
0
 10
-5.248
 11
-5.171
 20
76.769
 21
77.269
  0
LINE
  8
0
 10
-5.171
 11
-5.086
 20
77.269
 21
77.848
  0
LINE
  8
0
 10
-5.086
 11
-5.004
 20
77.848
 21
78.434
  0
LINE
  8
0
 10
-5.004
 11
-4.938
 20
78.434
 21
78.956
  0
LINE
  8
0
 10
-4.938
 11
-4.873
 20
78.956
 21
79.431
  0
LINE
  8
0
 10
-4.873
 11
-4.798
 20
79.431
 21
79.89
  0
LINE
  8
0
 10
-4.798
 11
-4.722
 20
79.89
 21
80.281
  0
LINE
  8
0
 10
-4.722
 11
-4.655
 20
80.281
 21
80.552
  0
LINE
  8
0
 10
-4.655
 11
-4.716
 20
80.552
 21
80.88
  0
LINE
  8
0
 10
-4.716
 11
-5.047
 20
80.88
 21
81.396
  0
LINE
  8
0
 10
-5.047
 11
-5.654
 20
81.396
 21
82.106
  0
LINE
  8
0
 10
-5.654
 11
-6.539
 20
82.106
 21
83.014
  0
LINE
  8
0
 10
-6.539
 11
-7.314
 20
83.014
 21
83.801
  0
LINE
  8
0
 10
-7.314
 11
-7.926
 20
83.801
 21
84.469
  0
LINE
  8
0
 10
-7.926
 11
-8.313
 20
84.469
 21
84.947
  0
LINE
  8
0
 10
-8.313
 11
-8.413
 20
84.947
 21
85.165
  0
LINE
  8
0
 10
-8.413
 11
-8.145
 20
85.165
 21
85.253
  0
LINE
  8
0
 10
-8.145
 11
-7.53
 20
85.253
 21
85.377
  0
LINE
  8
0
 10
-7.53
 11
-6.658
 20
85.377
 21
85.521
  0
LINE
  8
0
 10
-6.658
 11
-5.623
 20
85.521
 21
85.668
  0
LINE
  8
0
 10
-5.623
 11
-4.964
 20
85.668
 21
85.754
  0
LINE
  8
0
 10
-4.964
 11
-4.304
 20
85.754
 21
85.841
  0
LINE
  8
0
 10
-4.304
 11
-3.646
 20
85.841
 21
85.928
  0
LINE
  8
0
 10
-3.646
 11
-2.987
 20
85.928
 21
86.015
  0
LINE
  8
0
 10
-2.987
 11
-2.671
 20
86.015
 21
86.632
  0
LINE
  8
0
 10
-2.671
 11
-2.355
 20
86.632
 21
87.249
  0
LINE
  8
0
 10
-2.355
 11
-2.04
 20
87.249
 21
87.865
  0
LINE
  8
0
 10
-2.04
 11
-1.724
 20
87.865
 21
88.482
  0
LINE
  8
0
 10
-1.724
 11
-1.222
 20
88.482
 21
89.44
  0
LINE
  8
0
 10
-1.222
 11
-0.791
 20
89.44
 21
90.224
  0
LINE
  8
0
 10
-0.791
 11
-0.474
 20
90.224
 21
90.753
  0
LINE
  8
0
 10
-0.474
 11
-0.32
 20
90.753
 21
90.946
  0
LINE
  8
0
 10
-0.32
 11
0.32
 20
90.946
 21
90.946
  0
LINE
  8
0
 10
0.32
 11
0.474
 20
90.946
 21
90.753
  0
LINE
  8
0
 10
0.474
 11
0.791
 20
90.753
 21
90.224
  0
LINE
  8
0
 10
0.791
 11
1.222
 20
90.224
 21
89.44
  0
LINE
  8
0
 10
1.222
 11
1.724
 20
89.44
 21
88.482
  0
LINE
  8
0
 10
1.724
 11
2.04
 20
88.482
 21
87.865
  0
LINE
  8
0
 10
2.04
 11
2.355
 20
87.865
 21
87.249
  0
LINE
  8
0
 10
2.355
 11
2.671
 20
87.249
 21
86.632
  0
LINE
  8
0
 10
2.671
 11
2.987
 20
86.632
 21
86.015
  0
LINE
  8
0
 10
2.987
 11
3.646
 20
86.015
 21
85.928
  0
LINE
  8
0
 10
3.646
 11
4.304
 20
85.928
 21
85.841
  0
LINE
  8
0
 10
4.304
 11
4.964
 20
85.841
 21
85.754
  0
LINE
  8
0
 10
4.964
 11
5.623
 20
85.754
 21
85.668
  0
LINE
  8
0
 10
5.623
 11
6.658
 20
85.668
 21
85.521
  0
LINE
  8
0
 10
6.658
 11
7.53
 20
85.521
 21
85.377
  0
LINE
  8
0
 10
7.53
 11
8.145
 20
85.377
 21
85.253
  0
LINE
  8
0
 10
8.145
 11
8.413
 20
85.253
 21
85.165
  0
LINE
  8
0
 10
8.413
 11
8.313
 20
85.165
 21
84.947
  0
LINE
  8
0
 10
8.313
 11
7.926
 20
84.947
 21
84.469
  0
LINE
  8
0
 10
7.926
 11
7.314
 20
84.469
 21
83.801
  0
LINE
  8
0
 10
7.314
 11
6.539
 20
83.801
 21
83.014
  0
LINE
  8
0
 10
6.539
 11
5.654
 20
83.014
 21
82.106
  0
LINE
  8
0
 10
5.654
 11
5.047
 20
82.106
 21
81.396
  0
LINE
  8
0
 10
5.047
 11
4.716
 20
81.396
 21
80.88
  0
LINE
  8
0
 10
4.716
 11
4.655
 20
80.88
 21
80.552
  0
LINE
  8
0
 10
4.655
 11
4.722
 20
80.552
 21
80.281
  0
LINE
  8
0
 10
4.722
 11
4.798
 20
80.281
 21
79.89
  0
LINE
  8
0
 10
4.798
 11
4.873
 20
79.89
 21
79.431
  0
LINE
  8
0
 10
4.873
 11
4.938
 20
79.431
 21
78.956
  0
LINE
  8
0
 10
4.938
 11
5.004
 20
78.956
 21
78.434
  0
LINE
  8
0
 10
5.004
 11
5.086
 20
78.434
 21
77.848
  0
LINE
  8
0
 10
5.086
 11
5.171
 20
77.848
 21
77.269
  0
LINE
  8
0
 10
5.171
 11
5.248
 20
77.269
 21
76.769
  0
LINE
  8
0
 10
5.248
 11
5.321
 20
76.769
 21
76.097
  0
LINE
  8
0
 10
5.321
 11
5.215
 20
76.097
 21
75.791
  0
LINE
  8
0
 10
5.215
 11
4.838
 20
75.791
 21
75.791
  0
LINE
  8
0
 10
4.838
 11
4.827
 20
75.791
 21
75.711
  0
LINE
  8
0
 10
4.827
 11
2.436
 20
75.711
 21
75.711
  0
LINE
  8
0
 10
2.436
 11
2.597
 20
75.711
 21
75.282
  0
LINE
  8
0
 10
2.597
 11
3.405
 20
75.282
 21
73.995
  0
LINE
  8
0
 10
3.405
 11
4.52
 20
73.995
 21
72.52
  0
LINE
  8
0
 10
4.52
 11
5.754
 20
72.52
 21
71.131
  0
LINE
  8
0
 10
5.754
 11
6.666
 20
71.131
 21
70.299
  0
LINE
  8
0
 10
6.666
 11
7.79
 20
70.299
 21
69.506
  0
LINE
  8
0
 10
7.79
 11
9.347
 20
69.506
 21
68.614
  0
LINE
  8
0
 10
9.347
 11
11.557
 20
68.614
 21
67.485
  0
LINE
  8
0
 10
11.557
 11
13.91
 20
67.485
 21
66.302
  0
LINE
  8
0
 10
13.91
 11
15.124
 20
66.302
 21
65.619
  0
LINE
  8
0
 10
15.124
 11
15.459
 20
65.619
 21
65.26
  0
LINE
  8
0
 10
15.459
 11
15.181
 20
65.26
 21
65.048
  0
LINE
  8
0
 10
15.181
 11
15.428
 20
65.048
 21
64.845
  0
LINE
  8
0
 10
15.428
 11
14.327
 20
64.845
 21
64.532
  0
LINE
  8
0
 10
14.327
 11
11.118
 20
64.532
 21
64.455
  0
LINE
  8
0
 10
11.118
 11
9.838
 20
64.455
 21
64.425
  0
LINE
  8
0
 10
9.838
 11
8.791
 20
64.425
 21
64.369
  0
LINE
  8
0
 10
8.791
 11
8.085
 20
64.369
 21
64.295
  0
LINE
  8
0
 10
8.085
 11
8.009
 20
64.295
 21
64.27
  0
LINE
  8
0
 10
8.009
 11
8.019
 20
64.27
 21
64.238
  0
LINE
  8
0
 10
8.019
 11
8.156
 20
64.238
 21
64.057
  0
LINE
  8
0
 10
8.156
 11
8.382
 20
64.057
 21
63.813
  0
LINE
  8
0
 10
8.382
 11
8.673
 20
63.813
 21
63.53
  0
LINE
  8
0
 10
8.673
 11
9.516
 20
63.53
 21
62.924
  0
LINE
  8
0
 10
9.516
 11
10.859
 20
62.924
 21
62.32
  0
LINE
  8
0
 10
10.859
 11
13.049
 20
62.32
 21
61.59
  0
LINE
  8
0
 10
13.049
 11
16.429
 20
61.59
 21
60.604
  0
LINE
  8
0
 10
16.429
 11
17.489
 20
60.604
 21
60.303
  0
LINE
  8
0
 10
17.489
 11
18.549
 20
60.303
 21
60.003
  0
LINE
  8
0
 10
18.549
 11
19.609
 20
60.003
 21
59.703
  0
LINE
  8
0
 10
19.609
 11
20.669
 20
59.703
 21
59.402
  0
LINE
  8
0
 10
20.669
 11
20.354
 20
59.402
 21
59.258
  0
LINE
  8
0
 10
20.354
 11
20.294
 20
59.258
 21
59.231
  0
LINE
  8
0
 10
20.294
 11
20.401
 20
59.231
 21
59.194
  0
LINE
  8
0
 10
20.401
 11
19.753
 20
59.194
 21
58.894
  0
LINE
  8
0
 10
19.753
 11
18.611
 20
58.894
 21
58.524
  0
LINE
  8
0
 10
18.611
 11
17.899
 20
58.524
 21
58.253
  0
LINE
  8
0
 10
17.899
 11
15.839
 20
58.253
 21
57.585
  0
LINE
  8
0
 10
15.839
 11
13.904
 20
57.585
 21
57.032
  0
LINE
  8
0
 10
13.904
 11
12.986
 20
57.032
 21
56.844
  0
LINE
  8
0
 10
12.986
 11
12.712
 20
56.844
 21
56.714
  0
LINE
  8
0
 10
12.712
 11
12.457
 20
56.714
 21
56.527
  0
LINE
  8
0
 10
12.457
 11
13.58
 20
56.527
 21
55.76
  0
LINE
  8
0
 10
13.58
 11
16.452
 20
55.76
 21
54.314
  0
LINE
  8
0
 10
16.452
 11
21.203
 20
54.314
 21
52.124
  0
LINE
  8
0
 10
21.203
 11
22.356
 20
52.124
 21
51.577
  0
LINE
  8
0
 10
22.356
 11
23.286
 20
51.577
 21
51.083
  0
LINE
  8
0
 10
23.286
 11
23.897
 20
51.083
 21
50.697
  0
LINE
  8
0
 10
23.897
 11
24.096
 20
50.697
 21
50.473
  0
LINE
  8
0
 10
24.096
 11
23.701
 20
50.473
 21
50.266
  0
LINE
  8
0
 10
23.701
 11
22.697
 20
50.266
 21
49.927
  0
LINE
  8
0
 10
22.697
 11
21.233
 20
49.927
 21
49.503
  0
LINE
  8
0
 10
21.233
 11
19.463
 20
49.503
 21
49.041
  0
LINE
  8
0
 10
19.463
 11
17.701
 20
49.041
 21
48.584
  0
LINE
  8
0
 10
17.701
 11
16.256
 20
48.584
 21
48.177
  0
LINE
  8
0
 10
16.256
 11
15.28
 20
48.177
 21
47.862
  0
LINE
  8
0
 10
15.28
 11
14.92
 20
47.862
 21
47.686
  0
LINE
  8
0
 10
14.92
 11
15.248
 20
47.686
 21
47.358
  0
LINE
  8
0
 10
15.248
 11
16.136
 20
47.358
 21
46.967
  0
LINE
  8
0
 10
16.136
 11
17.426
 20
46.967
 21
46.569
  0
LINE
  8
0
 10
17.426
 11
18.958
 20
46.569
 21
46.224
  0
LINE
  8
0
 10
18.958
 11
20.085
 20
46.224
 21
46.051
  0
LINE
  8
0
 10
20.085
 11
21.347
 20
46.051
 21
45.899
  0
LINE
  8
0
 10
21.347
 11
21.752
 20
45.899
 21
45.852
  0
LINE
  8
0
 10
21.752
 11
22.299
 20
45.852
 21
45.796
  0
LINE
  8
0
 10
22.299
 11
23.95
 20
45.796
 21
45.636
  0
LINE
  8
0
 10
23.95
 11
24.144
 20
45.636
 21
45.619
  0
LINE
  8
0
 10
24.144
 11
25.441
 20
45.619
 21
45.508
  0
LINE
  8
0
 10
25.441
 11
27.19
 20
45.508
 21
45.37
  0
LINE
  8
0
 10
27.19
 11
28.635
 20
45.37
 21
45.247
  0
LINE
  8
0
 10
28.635
 11
29.625
 20
45.247
 21
45.151
  0
LINE
  8
0
 10
29.625
 11
30.01
 20
45.151
 21
45.097
  0
LINE
  8
0
 10
30.01
 11
29.757
 20
45.097
 21
44.928
  0
LINE
  8
0
 10
29.757
 11
29.014
 20
44.928
 21
44.518
  0
LINE
  8
0
 10
29.014
 11
27.894
 20
44.518
 21
43.93
  0
LINE
  8
0
 10
27.894
 11
26.513
 20
43.93
 21
43.224
  0
LINE
  8
0
 10
26.513
 11
25.097
 20
43.224
 21
42.498
  0
LINE
  8
0
 10
25.097
 11
23.882
 20
42.498
 21
41.853
  0
LINE
  8
0
 10
23.882
 11
23
 20
41.853
 21
41.361
  0
LINE
  8
0
 10
23
 11
22.579
 20
41.361
 21
41.091
  0
LINE
  8
0
 10
22.579
 11
22.231
 20
41.091
 21
40.848
  0
LINE
  8
0
 10
22.231
 11
21.58
 20
40.848
 21
40.578
  0
LINE
  8
0
 10
21.58
 11
20.368
 20
40.578
 21
40.188
  0
LINE
  8
0
 10
20.368
 11
18.334
 20
40.188
 21
39.586
  0
LINE
  8
0
 10
18.334
 11
16.975
 20
39.586
 21
39.096
  0
LINE
  8
0
 10
16.975
 11
16.746
 20
39.096
 21
38.868
  0
LINE
  8
0
 10
16.746
 11
16.933
 20
38.868
 21
38.631
  0
LINE
  8
0
 10
16.933
 11
18.345
 20
38.631
 21
38.084
  0
LINE
  8
0
 10
18.345
 11
20.047
 20
38.084
 21
37.665
  0
LINE
  8
0
 10
20.047
 11
22.661
 20
37.665
 21
37.205
  0
LINE
  8
0
 10
22.661
 11
26.278
 20
37.205
 21
36.69
  0
LINE
  8
0
 10
26.278
 11
30.988
 20
36.69
 21
36.104
  0
LINE
  8
0
 10
30.988
 11
32.312
 20
36.104
 21
35.948
  0
LINE
  8
0
 10
32.312
 11
33.636
 20
35.948
 21
35.792
  0
LINE
  8
0
 10
33.636
 11
34.959
 20
35.792
 21
35.635
  0
LINE
  8
0
 10
34.959
 11
36.283
 20
35.635
 21
35.479
  0
LINE
  8
0
 10
36.283
 11
35.98
 20
35.479
 21
35.351
  0
LINE
  8
0
 10
35.98
 11
37.162
 20
35.351
 21
35.2
  0
LINE
  8
0
 10
37.162
 11
35.978
 20
35.2
 21
34.712
  0
LINE
  8
0
 10
35.978
 11
34.793
 20
34.712
 21
34.224
  0
LINE
  8
0
 10
34.793
 11
33.609
 20
34.224
 21
33.737
  0
LINE
  8
0
 10
33.609
 11
32.424
 20
33.737
 21
33.249
  0
LINE
  8
0
 10
32.424
 11
28.623
 20
33.249
 21
31.738
  0
LINE
  8
0
 10
28.623
 11
25.536
 20
31.738
 21
30.639
  0
LINE
  8
0
 10
25.536
 11
22.98
 20
30.639
 21
29.893
  0
LINE
  8
0
 10
22.98
 11
20.777
 20
29.893
 21
29.44
  0
LINE
  8
0
 10
20.777
 11
19.971
 20
29.44
 21
29.306
  0
LINE
  8
0
 10
19.971
 11
19.294
 20
29.306
 21
29.178
  0
LINE
  8
0
 10
19.294
 11
18.815
 20
29.178
 21
29.071
  0
LINE
  8
0
 10
18.815
 11
18.607
 20
29.071
 21
28.998
  0
LINE
  8
0
 10
18.607
 11
18.617
 20
28.998
 21
28.693
  0
LINE
  8
0
 10
18.617
 11
18.805
 20
28.693
 21
28.547
  0
LINE
  8
0
 10
18.805
 11
18.914
 20
28.547
 21
28.466
  0
LINE
  8
0
 10
18.914
 11
19.418
 20
28.466
 21
28.168
  0
LINE
  8
0
 10
19.418
 11
19.467
 20
28.168
 21
28.145
  0
LINE
  8
0
 10
19.467
 11
19.861
 20
28.145
 21
28.015
  0
LINE
  8
0
 10
19.861
 11
20.029
 20
28.015
 21
27.989
  0
LINE
  8
0
 10
20.029
 11
20.284
 20
27.989
 21
27.918
  0
LINE
  8
0
 10
20.284
 11
20.595
 20
27.918
 21
27.814
  0
LINE
  8
0
 10
20.595
 11
20.923
 20
27.814
 21
27.686
  0
LINE
  8
0
 10
20.923
 11
21.479
 20
27.686
 21
27.456
  0
LINE
  8
0
 10
21.479
 11
21.907
 20
27.456
 21
27.31
  0
LINE
  8
0
 10
21.907
 11
22.232
 20
27.31
 21
27.23
  0
LINE
  8
0
 10
22.232
 11
37.711
 20
27.23
 21
27.23
  0
LINE
  8
0
 10
37.711
 11
37.536
 20
27.23
 21
27.1
  0
LINE
  8
0
 10
37.536
 11
37.36
 20
27.1
 21
26.971
  0
LINE
  8
0
 10
37.36
 11
37.162
 20
26.971
 21
26.825
  0
LINE
  8
0
 10
37.162
 11
37.322
 20
26.825
 21
26.825
  0
LINE
  8
0
 10
37.322
 11
37.97
 20
26.825
 21
26.798
  0
LINE
  8
0
 10
37.97
 11
38.197
 20
26.798
 21
26.715
  0
LINE
  8
0
 10
38.197
 11
37.035
 20
26.715
 21
25.583
  0
LINE
  8
0
 10
37.035
 11
34.317
 20
25.583
 21
23.273
  0
LINE
  8
0
 10
34.317
 11
31.149
 20
23.273
 21
20.704
  0
LINE
  8
0
 10
31.149
 11
28.641
 20
20.704
 21
18.794
  0
LINE
  8
0
 10
28.641
 11
24.229
 20
18.794
 21
16.23
  0
LINE
  8
0
 10
24.229
 11
19.508
 20
16.23
 21
14.451
  0
LINE
  8
0
 10
19.508
 11
14.783
 20
14.451
 21
13.545
  0
LINE
  8
0
 10
14.783
 11
4.182
 20
13.545
 21
13.545
  0
LINE
  8
0
 10
4.182
 11
4.333
 20
13.545
 21
12.977
  0
LINE
  8
0
 10
4.333
 11
5.366
 20
12.977
 21
9.485
  0
LINE
  8
0
 10
5.366
 11
5.696
 20
9.485
 21
8.362
  0
LINE
  8
0
 10
5.696
 11
5.965
 20
8.362
 21
7.423
  0
LINE
  8
0
 10
5.965
 11
6.147
 20
7.423
 21
6.766
  0
LINE
  8
0
 10
6.147
 11
6.215
 20
6.766
 21
6.489
  0
LINE
  8
0
 10
6.215
 11
6.065
 20
6.489
 21
6.426
  0
LINE
  8
0
 10
6.065
 11
5.658
 20
6.426
 21
6.348
  0
LINE
  8
0
 10
5.658
 11
5.055
 20
6.348
 21
6.266
  0
LINE
  8
0
 10
5.055
 11
4.32
 20
6.266
 21
6.19
  0
LINE
  8
0
 10
4.32
 11
3.529
 20
6.19
 21
6.11
  0
LINE
  8
0
 10
3.529
 11
2.775
 20
6.11
 21
6.02
  0
LINE
  8
0
 10
2.775
 11
2.143
 20
6.02
 21
5.929
  0
LINE
  8
0
 10
2.143
 11
1.721
 20
5.929
 21
5.85
  0
LINE
  8
0
 10
1.721
 11
1.435
 20
5.85
 21
5.794
  0
LINE
  8
0
 10
1.435
 11
1.181
 20
5.794
 21
5.77
  0
LINE
  8
0
 10
1.181
 11
-1.181
 20
5.77
 21
5.77
  0
LINE
  8
0
 10
-1.181
 11
-1.435
 20
5.77
 21
5.794
  0
LINE
  8
0
 10
-1.435
 11
-1.721
 20
5.794
 21
5.85
  0
LINE
  8
0
 10
-1.721
 11
-2.143
 20
5.85
 21
5.929
  0
LINE
  8
0
 10
-2.143
 11
-2.775
 20
5.929
 21
6.02
  0
LINE
  8
0
 10
-2.775
 11
-3.529
 20
6.02
 21
6.11
  0
LINE
  8
0
 10
-3.529
 11
-4.32
 20
6.11
 21
6.19
  0
LINE
  8
0
 10
-4.32
 11
-5.055
 20
6.19
 21
6.266
  0
LINE
  8
0
 10
-5.055
 11
-5.658
 20
6.266
 21
6.348
  0
LINE
  8
0
 10
-5.658
 11
-6.065
 20
6.348
 21
6.426
  0
LINE
  8
0
 10
-6.065
 11
-6.215
 20
6.426
 21
6.489
  0
LINE
  8
0
 10
-6.215
 11
-6.147
 20
6.489
 21
6.766
  0
LINE
  8
0
 10
-6.147
 11
-5.965
 20
6.766
 21
7.423
  0
LINE
  8
0
 10
-5.965
 11
-5.696
 20
7.423
 21
8.362
  0
LINE
  8
0
 10
-5.696
 11
-5.366
 20
8.362
 21
9.485
  0
LINE
  8
0
 10
-5.366
 11
-4.333
 20
9.485
 21
12.977
  0
LINE
  8
0
 10
-4.333
 11
-4.182
 20
12.977
 21
13.545
  0
LINE
  8
0
 10
-4.182
 11
-14.783
 20
13.545
 21
13.545
  0
LINE
  8
0
 10
-14.783
 11
-19.508
 20
13.545
 21
14.451
  0
LINE
  8
0
 10
-19.508
 11
-24.229
 20
14.451
 21
16.23
  0
LINE
  8
0
 10
-24.229
 11
-28.641
 20
16.23
 21
18.794
  0
LINE
  8
0
 10
-28.641
 11
-31.149
 20
18.794
 21
20.704
  0
LINE
  8
0
 10
-31.149
 11
-34.317
 20
20.704
 21
23.273
  0
LINE
  8
0
 10
-34.317
 11
-37.035
 20
23.273
 21
25.583
  0
LINE
  8
0
 10
-37.035
 11
-38.197
 20
25.583
 21
26.715
  0
ENDSEC
  0
SECTION
  2
OBJECTS
  0
DICTIONARY
  0
ENDSEC
  0
EOF
