<?xml version="1.0" encoding="UTF-8" standalone="no"?>
<!-- Created with Inkscape (http://www.inkscape.org/) -->

<svg
   width="765"
   height="990"
   id="svg3458"
   version="1.1"
   xmlns:xlink="http://www.w3.org/1999/xlink"
   xmlns="http://www.w3.org/2000/svg"
   xmlns:svg="http://www.w3.org/2000/svg"
   xmlns:rdf="http://www.w3.org/1999/02/22-rdf-syntax-ns#"
   xmlns:cc="http://creativecommons.org/ns#"
   xmlns:dc="http://purl.org/dc/elements/1.1/">
  <defs
     id="defs3460">
    <linearGradient
       id="linearGradient4095">
      <stop
         style="stop-color:#000000;stop-opacity:1;"
         offset="0"
         id="stop4097" />
      <stop
         style="stop-color:#000000;stop-opacity:0;"
         offset="1"
         id="stop4099" />
    </linearGradient>
    <linearGradient
       xlink:href="#linearGradient4095"
       id="linearGradient4101"
       x1="835.71429"
       y1="860.93359"
       x2="841.42859"
       y2="859.50507"
       gradientUnits="userSpaceOnUse" />
    <linearGradient
       xlink:href="#linearGradient4095"
       id="linearGradient4367"
       gradientUnits="userSpaceOnUse"
       x1="835.71429"
       y1="860.93359"
       x2="841.42859"
       y2="859.50507" />
    <linearGradient
       xlink:href="#linearGradient4095"
       id="linearGradient4369"
       gradientUnits="userSpaceOnUse"
       x1="835.71429"
       y1="860.93359"
       x2="841.42859"
       y2="859.50507" />
    <linearGradient
       xlink:href="#linearGradient4095"
       id="linearGradient4371"
       gradientUnits="userSpaceOnUse"
       x1="835.71429"
       y1="860.93359"
       x2="841.42859"
       y2="859.50507" />
    <linearGradient
       xlink:href="#linearGradient4095"
       id="linearGradient4373"
       gradientUnits="userSpaceOnUse"
       x1="835.71429"
       y1="860.93359"
       x2="841.42859"
       y2="859.50507" />
  </defs>
  <metadata
     id="metadata3463">
    <rdf:RDF>
      <cc:Work
         rdf:about="">
        <dc:format>image/svg+xml</dc:format>
        <dc:type
           rdf:resource="http://purl.org/dc/dcmitype/StillImage" />
      </cc:Work>
    </rdf:RDF>
  </metadata>
  <g
     id="layer1"
     transform="translate(0,-62.362183)">
    <path
       style="fill:#800000;fill-opacity:1;fill-rule:nonzero;stroke:none"
       d=""
       id="path3293" />
    <path
       style="fill:#800000;fill-opacity:1;fill-rule:nonzero;stroke:none"
       d=""
       id="path3303" />
    <path
       style="fill:#800000;fill-opacity:1;fill-rule:nonzero;stroke:none"
       d=""
       id="path3307" />
    <path
       style="fill:#800000;fill-opacity:1;fill-rule:nonzero;stroke:none"
       d=""
       id="path3309" />
    <path
       style="fill:#800000;fill-opacity:1;fill-rule:nonzero;stroke:none"
       d=""
       id="path3337" />
    <path
       style="fill:#d3bc5f;fill-opacity:1;fill-rule:nonzero;stroke:none"
       d=""
       id="path3351" />
    <path
       style="fill:#d3bc5f;fill-opacity:1;fill-rule:nonzero;stroke:none"
       d=""
       id="path3375" />
    <path
       style="fill:#d3bc5f;fill-opacity:1;fill-rule:nonzero;stroke:none"
       d=""
       id="path3403" />
    <path
       style="fill:#d3bc5f;fill-opacity:1;fill-rule:nonzero;stroke:none"
       d=""
       id="path3405" />
    <path
       style="fill:#800000;fill-opacity:1;fill-rule:nonzero;stroke:none"
       d=""
       id="path3448" />
    <path
       id="path4157"
       d="m 606.03331,191.33307 1.17205,23.83153 c 0.813,16.77756 -0.63279,26.36964 -4.85561,32.39862 -3.29936,4.71046 -5.99974,9.88592 -5.99974,11.49718 0,3.6399 50.09641,-14.12542 73.64336,-26.11981 9.59089,-4.8854 26.13008,-15.13293 36.77982,-22.77112 10.64972,-7.63815 20.8062,-13.89708 22.54787,-13.89708 6.92993,0 -15.94114,33.04179 -34.82642,50.31413 -47.32807,43.28583 -166.12712,77.55938 -268.64897,77.52226 -51.82235,-0.0194 -118.20959,-12.02202 -166.12313,-30.05453 -3.55332,-1.3373 -0.79512,3.94604 6.2788,12.0553 6.92677,7.94056 12.58551,15.50419 12.58551,16.79928 0,1.29514 -10.01378,1.37547 -22.26881,0.19534 l -22.29672,-2.12084 -24.19432,31.03123 c -26.36066,33.78096 -29.26522,41.88659 -14.9575,41.88659 15.9677,0 85.31678,15.08161 117.17639,25.47798 16.77671,5.47456 65.36916,23.57944 107.99538,40.24013 42.6262,16.66065 94.33321,35.14154 114.91601,41.04941 41.53571,11.9219 44.07026,15.96017 18.13876,29.18941 l -15.20865,7.75781 26.70583,29.85919 c 24.77572,27.70567 35.77454,41.51104 91.81003,115.13926 46.94231,61.68027 97.92652,176.76229 94.0983,212.44677 l -1.33948,12.30641 -5.60906,-11.63667 c -18.11676,-37.58958 -80.20277,-133.94329 -112.4603,-174.52277 -24.58169,-30.92335 -73.01097,-76.9228 -105.1769,-99.87484 -92.71127,-66.15403 -199.5428,-99.57551 -317.9864,-99.51202 -57.69527,0.0312 -103.7258,3.50273 -103.7258,7.84157 0,1.58728 28.24861,12.23881 62.76011,23.6641 34.51145,11.4253 71.48665,26.00471 82.18253,32.39857 18.77833,11.22563 45.00289,41.92369 40.0448,46.88172 -4.88667,4.88668 -266.36069,-98.44267 -266.36069,-105.26062 0,-12.792 20.538656,-28.95074 47.049141,-37.00303 25.9678,-7.88749 26.743376,-8.45239 20.427033,-15.4319 -5.463711,-6.03734 -6.213586,-12.74296 -4.520737,-39.87736 2.571413,-41.21668 14.807183,-65.59104 45.486423,-90.58217 11.76105,-9.58047 21.37583,-19.26663 21.37583,-21.51536 0,-2.24868 -9.5699,-7.40092 -21.29211,-11.44137 -25.13683,-8.66428 -34.882228,-16.4327 -34.882228,-27.87788 0,-15.48478 8.518198,-21.48585 36.835638,-25.92447 35.62757,-5.58454 81.49649,-2.2804 143.352,10.32514 101.0688,20.59679 126.44537,15.09957 171.09036,-37.00307 14.46744,-16.88416 27.70342,-29.30809 29.4127,-27.59882 1.70927,1.70927 -1.26289,13.01615 -6.61367,25.1152 -5.35081,12.09911 -8.10051,21.98976 -6.11137,21.98976 1.98912,0 20.51495,-11.28311 41.16103,-25.0873 20.64608,-13.80418 39.05074,-24.17127 40.90988,-23.02227 1.85911,1.14902 -1.66713,9.44365 -7.84153,18.41782 -21.96927,31.93125 -60.79347,61.54266 -94.87966,72.35969 -16.92593,5.37134 -12.98087,11.42282 7.50665,11.52509 46.15268,0.23018 106.12982,-39.57355 142.26369,-94.43317 z"
       style="fill:#000000;fill-opacity:1;fill-rule:nonzero;stroke:none;stroke-width:0.892985" />
    <path
       style="fill:#d3bc5f;fill-opacity:1;fill-rule:nonzero;stroke:none"
       d="m 564.51828,267.84201 c -150.63426,224.12049 -75.31713,112.06024 0,0 z"
       id="path3355" />
    <g
       id="layer1-9"
       transform="matrix(1.4460734,0,0,1.4460734,-1147.3314,-23.147153)"
       style="fill:#000000;fill-opacity:1" />
  </g>
</svg>
