<?xml version="1.0" encoding="UTF-8" standalone="no"?>
<!-- Created with Inkscape (http://www.inkscape.org/) -->

<svg
   xmlns:dc="http://purl.org/dc/elements/1.1/"
   xmlns:cc="http://creativecommons.org/ns#"
   xmlns:rdf="http://www.w3.org/1999/02/22-rdf-syntax-ns#"
   xmlns:svg="http://www.w3.org/2000/svg"
   xmlns="http://www.w3.org/2000/svg"
   xmlns:xlink="http://www.w3.org/1999/xlink"
   xmlns:sodipodi="http://sodipodi.sourceforge.net/DTD/sodipodi-0.dtd"
   xmlns:inkscape="http://www.inkscape.org/namespaces/inkscape"
   width="765"
   height="990"
   id="svg3458"
   version="1.1"
   inkscape:version="0.48.2 r9819"
   sodipodi:docname="Laza2.svg">
  <defs
     id="defs3460">
    <linearGradient
       inkscape:collect="always"
       id="linearGradient4095">
      <stop
         style="stop-color:#000000;stop-opacity:1;"
         offset="0"
         id="stop4097" />
      <stop
         style="stop-color:#000000;stop-opacity:0;"
         offset="1"
         id="stop4099" />
    </linearGradient>
    <linearGradient
       inkscape:collect="always"
       xlink:href="#linearGradient4095"
       id="linearGradient4101"
       x1="835.71429"
       y1="860.93359"
       x2="841.42859"
       y2="859.50507"
       gradientUnits="userSpaceOnUse" />
    <linearGradient
       inkscape:collect="always"
       xlink:href="#linearGradient4095"
       id="linearGradient4367"
       gradientUnits="userSpaceOnUse"
       x1="835.71429"
       y1="860.93359"
       x2="841.42859"
       y2="859.50507" />
    <linearGradient
       inkscape:collect="always"
       xlink:href="#linearGradient4095"
       id="linearGradient4369"
       gradientUnits="userSpaceOnUse"
       x1="835.71429"
       y1="860.93359"
       x2="841.42859"
       y2="859.50507" />
    <linearGradient
       inkscape:collect="always"
       xlink:href="#linearGradient4095"
       id="linearGradient4371"
       gradientUnits="userSpaceOnUse"
       x1="835.71429"
       y1="860.93359"
       x2="841.42859"
       y2="859.50507" />
    <linearGradient
       inkscape:collect="always"
       xlink:href="#linearGradient4095"
       id="linearGradient4373"
       gradientUnits="userSpaceOnUse"
       x1="835.71429"
       y1="860.93359"
       x2="841.42859"
       y2="859.50507" />
  </defs>
  <sodipodi:namedview
     id="base"
     pagecolor="#ffffff"
     bordercolor="#666666"
     borderopacity="1.0"
     inkscape:pageopacity="0.0"
     inkscape:pageshadow="2"
     inkscape:zoom="0.49497475"
     inkscape:cx="485.0563"
     inkscape:cy="463.61678"
     inkscape:document-units="in"
     inkscape:current-layer="layer1"
     showgrid="false"
     inkscape:window-width="1280"
     inkscape:window-height="752"
     inkscape:window-x="0"
     inkscape:window-y="0"
     inkscape:window-maximized="1" />
  <metadata
     id="metadata3463">
    <rdf:RDF>
      <cc:Work
         rdf:about="">
        <dc:format>image/svg+xml</dc:format>
        <dc:type
           rdf:resource="http://purl.org/dc/dcmitype/StillImage" />
        <dc:title></dc:title>
      </cc:Work>
    </rdf:RDF>
  </metadata>
  <g
     inkscape:label="Layer 1"
     inkscape:groupmode="layer"
     id="layer1"
     transform="translate(0,-62.362183)">
    <path
       style="fill:#800000;fill-opacity:1;fill-rule:nonzero;stroke:none"
       d=""
       id="path3293"
       inkscape:connector-curvature="0" />
    <path
       style="fill:#800000;fill-opacity:1;fill-rule:nonzero;stroke:none"
       d=""
       id="path3303"
       inkscape:connector-curvature="0" />
    <path
       style="fill:#800000;fill-opacity:1;fill-rule:nonzero;stroke:none"
       d=""
       id="path3307"
       inkscape:connector-curvature="0" />
    <path
       style="fill:#800000;fill-opacity:1;fill-rule:nonzero;stroke:none"
       d=""
       id="path3309"
       inkscape:connector-curvature="0" />
    <path
       style="fill:#800000;fill-opacity:1;fill-rule:nonzero;stroke:none"
       d=""
       id="path3337"
       inkscape:connector-curvature="0" />
    <path
       style="fill:#d3bc5f;fill-opacity:1;fill-rule:nonzero;stroke:none"
       d=""
       id="path3351"
       inkscape:connector-curvature="0" />
    <path
       style="fill:#d3bc5f;fill-opacity:1;fill-rule:nonzero;stroke:none"
       d=""
       id="path3375"
       inkscape:connector-curvature="0" />
    <path
       style="fill:#d3bc5f;fill-opacity:1;fill-rule:nonzero;stroke:none"
       d=""
       id="path3403"
       inkscape:connector-curvature="0" />
    <path
       style="fill:#d3bc5f;fill-opacity:1;fill-rule:nonzero;stroke:none"
       d=""
       id="path3405"
       inkscape:connector-curvature="0" />
    <path
       style="fill:#800000;fill-opacity:1;fill-rule:nonzero;stroke:none"
       d=""
       id="path3448"
       inkscape:connector-curvature="0" />
    <g
       id="g4286"
       transform="matrix(0.89298506,0,0,0.89298506,829.09222,63.20514)">
      <path
         inkscape:connector-curvature="0"
         id="path4157"
         d="m -249.79019,143.48272 1.3125,26.6875 c 0.91043,18.78817 -0.70862,29.52976 -5.4375,36.28125 -3.69475,5.27496 -6.71875,11.07065 -6.71875,12.875 0,4.0761 56.09995,-15.81821 82.46875,-29.25 10.74026,-5.47086 29.2615,-16.94645 41.1875,-25.5 11.92598,-8.5535 23.29961,-15.5625 25.25,-15.5625 7.76041,0 -17.85152,37.00151 -39,56.34375 -52.99985,48.47319 -186.03573,86.85407 -300.84375,86.8125 -58.03272,-0.0217 -132.37578,-13.46273 -186.03125,-33.65625 -3.97915,-1.49757 -0.89041,4.41893 7.03125,13.5 7.75687,8.89215 14.09375,17.3622 14.09375,18.8125 0,1.45035 -11.21383,1.5403 -24.9375,0.21875 l -24.96875,-2.375 -27.09375,34.75 c -29.51971,37.82925 -32.77236,46.90625 -16.75,46.90625 17.88126,0 95.5411,16.88899 131.21875,28.53125 18.78723,6.13064 73.20298,26.4052 120.9375,45.0625 47.73451,18.65725 105.63806,39.35288 128.6875,45.96875 46.51333,13.35061 49.35162,17.87283 20.3125,32.68746 l -17.03125,8.6875 29.90625,33.4375 c 27.74483,31.0259 40.06174,46.4857 102.8125,128.9375 52.56785,69.072 109.661991,197.9454 105.375001,237.9063 l -1.5,13.7812 -6.28125,-13.0312 c -20.287871,-42.0943 -89.814241,-149.995 -125.937501,-195.4375 -27.52754,-34.6292 -81.76057,-86.1412 -117.78125,-111.8438 -103.82175,-74.0819 -223.45592,-111.5086 -356.09375,-111.4375 -64.60945,0.035 -116.15625,3.9225 -116.15625,8.7813 0,1.7775 31.63391,13.7055 70.28125,26.5 38.64729,12.7945 80.05358,29.1211 92.03125,36.2812 21.02871,12.5709 50.39601,46.9478 44.84375,52.5 -5.47229,5.4723 -298.28124,-110.24 -298.28124,-117.875 0,-14.32499 23,-32.42019 52.68749,-41.43746 29.07977,-8.83272 29.94829,-9.46532 22.875,-17.28125 -6.11848,-6.76086 -6.95822,-14.27007 -5.0625,-44.65625 2.87957,-46.15607 16.58167,-73.45144 50.9375,-101.4375 13.17048,-10.72859 23.9375,-21.57553 23.9375,-24.09375 0,-2.51816 -10.71676,-8.28784 -23.84375,-12.8125 -28.14922,-9.7026 -39.0625,-18.40198 -39.0625,-31.21875 0,-17.34047 9.53901,-24.06071 41.25,-29.03125 39.89717,-6.25379 91.263,-2.55368 160.53125,11.5625 113.18084,23.0651 141.59852,16.9091 191.59375,-41.4375 16.20121,-18.90755 31.02339,-32.82036 32.9375,-30.90625 1.91411,1.91411 -1.41423,14.576 -7.40625,28.125 -5.99204,13.54906 -9.07127,24.625 -6.84375,24.625 2.2275,0 22.97345,-12.63527 46.09375,-28.09375 23.1203,-15.45847 43.73057,-27.06795 45.8125,-25.78125 2.08191,1.28672 -1.86691,10.57537 -8.78125,20.625 -24.60206,35.75788 -68.07893,68.91791 -106.25,81.03125 -18.95433,6.01503 -14.53649,12.79172 8.40625,12.90625 51.68359,0.25776 118.84837,-44.31603 159.3125,-105.75 l 13.96875,-21.21875 z"
         style="fill:#000000;fill-opacity:1;fill-rule:nonzero;stroke:none" />
      <path
         inkscape:connector-curvature="0"
         id="rect4152"
         d="m -255.04019,178.35772 c -2.77821,0.0293 -17.90492,13.17699 -35.125,30.65625 -38.13753,38.71157 -62.63329,54.28868 -100.90625,64.09375 -22.37452,5.73209 -31.35838,6.03748 -53.75,1.8125 -38.79683,-7.32044 -41.99162,-11.06961 -14.8125,-17.375 36.40464,-8.44563 76.46966,-29.36794 100.46875,-52.5 12.09337,-11.65647 20.93193,-22.25561 19.65625,-23.53125 -1.27564,-1.27564 -19.50492,8.47515 -40.5,21.65625 -20.99503,13.18112 -40.46314,23.96875 -43.28125,23.96875 -10.41038,0 -10.38852,-5.8921 0.0625,-18.3125 20.18614,-23.98985 10.72983,-22.683 -14.25,1.96875 -13.72367,13.54342 -32.18896,27.65813 -41.0625,31.34375 -24.36271,10.11903 -73.63352,8.29582 -138.96875,-5.125 -46.3448,-9.51988 -69.43647,-11.84338 -118.71875,-11.9375 -67.26762,-0.12841 -77.03433,2.93409 -74.65625,23.375 1.10788,9.52261 5.57208,12.69918 29.53125,21.1875 15.51372,5.49624 31.10741,12.94944 34.6875,16.5625 5.79189,5.84536 5.34068,7.53019 -4.3125,15.21874 -60.70754,48.35237 -70.26967,63.35707 -72.96875,114.78125 l -1.875,35.8125 13.5625,7 c 7.44845,3.85175 13.53125,8.6169 13.53125,10.5625 0,1.94566 -11.21383,5.96881 -24.9375,8.96875 -36.17973,7.90873 -60.50844,19.55671 -64.03124,30.65621 -1.6671,5.2527 -1.3709,11.01 0.6562,12.7813 2.0272,1.7713 44.69129,19.1068 94.81254,38.5312 139.95751,54.2404 169.08429,64.9845 171.0625,63.1563 3.35851,-3.104 -18.97767,-24.0404 -36.53125,-34.25 -9.5469,-5.5527 -47.76034,-20.122 -84.9375,-32.375 -37.17716,-12.253 -74.29812,-26.4631 -82.46875,-31.5625 l -14.84375,-9.2813 17.34375,-3.4062 c 35.03615,-6.91457 155.85927,-9.31298 199.90625,-3.9688 52.49205,6.3689 128.15206,25.7686 170.1875,43.6563 106.04823,45.1275 211.66906,133.2897 273.09375,227.9375 10.84259,16.7071 25.00042,38.1718 31.4375,47.7187 6.43709,9.5469 19.06816,29.6931 28.09375,44.75 9.02561,15.057 17.01016,26.77125 17.75,26.03135 0.73984,-0.7399 -1.35442,-11.77115 -4.65625,-24.50005 -12.41975,-47.8793 -48.89453,-114.6742 -103.21875,-189 -19.37466,-26.5082 -37.42627,-50.1445 -40.09375,-52.5313 -2.66746,-2.3867 -9.41962,-11.1777 -15.03125,-19.5312 -5.61162,-8.3535 -24.6924,-30.2327 -42.40625,-48.5938 l -32.21875,-33.375 14.625,-8.9062 c 8.03832,-4.9007 16.0537,-8.9286 17.84375,-8.9375 1.79004,-0.01 3.28125,-1.7833 3.28125,-3.9375 0,-2.15427 -14.16499,-8.07019 -31.46875,-13.15626 -29.18792,-8.57919 -51.66439,-16.82531 -184.78125,-67.8125 -27.04561,-10.35913 -66.12357,-23.58385 -86.8125,-29.40625 -33.55875,-9.44432 -51.82998,-13.15682 -110.28125,-22.375 -8.95023,-1.41151 -16.26592,-4.93727 -16.25,-7.8125 0.0173,-2.87527 9.83939,-17.92378 21.84375,-33.4375 12.00436,-15.51372 26.15403,-34.60197 31.4375,-42.43749 9.21836,-13.67112 10.49114,-14.15653 31.3125,-11.75 l 21.6875,2.5 -11.9375,-9.21875 c -13.94842,-10.79528 -17.44422,-33.37513 -4.34375,-28.0625 57.27848,23.22823 103.70184,32.82326 172.5,35.65625 119.20229,4.90864 258.84015,-31.59798 317.875,-83.125 26.37383,-23.01975 22.76277,-26.94174 -8.6875,-9.4375 -31.97141,17.79425 -111.14616,48.13514 -115.15625,44.125 -1.53358,-1.53353 -0.35607,-6.12521 2.59375,-10.1875 9.44727,-13.00935 22.02305,-41.59881 19.84375,-45.125 -0.0725,-0.11728 -0.22104,-0.18945 -0.40625,-0.1875 z"
         style="fill:#d3bc5f;fill-opacity:1;fill-rule:nonzero;stroke:none" />
    </g>
    <path
       style="fill:#d3bc5f;fill-opacity:1;fill-rule:nonzero;stroke:none"
       d="m 564.51828,267.84201 c -150.63426,224.12049 -75.31713,112.06024 0,0 z"
       id="path3355"
       inkscape:connector-curvature="0"
       sodipodi:nodetypes="cc" />
    <g
       id="layer1-9"
       inkscape:label="Layer 1"
       transform="matrix(1.4460734,0,0,1.4460734,-1147.3314,-23.147153)"
       style="fill:#000000;fill-opacity:1" />
  </g>
</svg>
