<?xml version="1.0" encoding="UTF-8" standalone="no"?>
<!-- Created with Inkscape (http://www.inkscape.org/) -->

<svg
   id="svg3087"
   version="1.1"
   inkscape:version="1.3 (0e150ed, 2023-07-21)"
   width="337"
   height="436"
   sodipodi:docname="liliom2.svg"
   inkscape:export-filename="liliom.png"
   inkscape:export-xdpi="28.486647"
   inkscape:export-ydpi="28.486647"
   xmlns:inkscape="http://www.inkscape.org/namespaces/inkscape"
   xmlns:sodipodi="http://sodipodi.sourceforge.net/DTD/sodipodi-0.dtd"
   xmlns="http://www.w3.org/2000/svg"
   xmlns:svg="http://www.w3.org/2000/svg"
   xmlns:rdf="http://www.w3.org/1999/02/22-rdf-syntax-ns#"
   xmlns:cc="http://creativecommons.org/ns#"
   xmlns:dc="http://purl.org/dc/elements/1.1/">
  <metadata
     id="metadata3093">
    <rdf:RDF>
      <cc:Work
         rdf:about="">
        <dc:format>image/svg+xml</dc:format>
        <dc:type
           rdf:resource="http://purl.org/dc/dcmitype/StillImage" />
      </cc:Work>
    </rdf:RDF>
  </metadata>
  <defs
     id="defs3091" />
  <sodipodi:namedview
     pagecolor="#ffffff"
     bordercolor="#666666"
     borderopacity="1"
     objecttolerance="10"
     gridtolerance="10"
     guidetolerance="10"
     inkscape:pageopacity="0"
     inkscape:pageshadow="2"
     inkscape:window-width="1824"
     inkscape:window-height="1153"
     id="namedview3089"
     showgrid="false"
     showguides="true"
     inkscape:guide-bbox="true"
     inkscape:zoom="1.0328461"
     inkscape:cx="274.96835"
     inkscape:cy="51.314517"
     inkscape:window-x="412"
     inkscape:window-y="122"
     inkscape:window-maximized="0"
     inkscape:current-layer="svg3087"
     inkscape:showpageshadow="2"
     inkscape:pagecheckerboard="0"
     inkscape:deskcolor="#d1d1d1" />
  <path
     inkscape:connector-curvature="0"
     id="path5840"
     d="m 148.9753,250.74147 c -0.44568,-0.47442 -0.5885,-1.02884 -0.42318,-1.64281 0.1482,-0.55011 0.65878,-1.06616 1.055,-1.06616 0.36294,0 0.77645,0.41353 0.96535,0.96539 0.45527,1.3299 -0.74988,2.64549 -1.59717,1.74358 z"
     style="fill:#000000;fill-opacity:0.99789894;fill-rule:nonzero;stroke:#000000;stroke-width:2.09318;stroke-linejoin:round;stroke-miterlimit:4;stroke-dasharray:none;stroke-opacity:1" />
  <path
     inkscape:connector-curvature="0"
     id="path5842"
     d="m 136.06375,252.61848 c -0.66362,-0.27163 -0.9889,-1.16024 -0.59738,-1.632 0.42161,-0.50802 1.65516,-0.34906 2.0576,0.26514 0.17729,0.27071 0.17457,0.33899 -0.0278,0.68173 -0.21292,0.36044 -0.81954,0.81853 -1.06005,0.80051 -0.0609,-0.004 -0.22839,-0.0565 -0.37229,-0.11533 z"
     style="fill:#000000;fill-opacity:0.99789894;fill-rule:nonzero;stroke:#000000;stroke-width:2.09318;stroke-linejoin:round;stroke-miterlimit:4;stroke-dasharray:none;stroke-opacity:1" />
  <path
     inkscape:connector-curvature="0"
     id="path5844"
     d="m 126.01062,254.72692 c -0.28738,-0.31756 -0.27538,-0.97519 0.0228,-1.24496 0.5172,-0.46808 1.46146,-0.0733 1.46146,0.61104 0,0.69309 -1.03181,1.13379 -1.48419,0.63392 z"
     style="fill:#000000;fill-opacity:0.99789894;fill-rule:nonzero;stroke:#000000;stroke-width:2.09318;stroke-linejoin:round;stroke-miterlimit:4;stroke-dasharray:none;stroke-opacity:1" />
  <path
     inkscape:connector-curvature="0"
     id="path5846"
     d="m 193.79693,262.58663 c -0.1932,-0.48568 -0.93553,-2.32539 -1.64949,-4.08825 -1.4508,-3.58215 -1.73549,-4.45252 -1.75638,-5.36973 -0.0126,-0.55481 0.054,-0.72076 0.54605,-1.35845 0.92614,-1.20043 1.10419,-2.03308 0.715,-3.34357 -0.43609,-1.46854 -2.36066,-2.8017 -3.68886,-2.55533 -1.12743,0.2091 -3.08476,1.59085 -3.42823,2.42008 -0.32028,0.7732 -0.11722,1.6797 0.69506,3.10172 1.12155,1.96361 1.139,1.85507 -1.14352,7.10528 -0.7664,1.76286 -1.44078,3.32133 -1.49861,3.46329 -0.31224,0.76642 -0.53282,-7.31553 -0.53676,-19.66669 -0.002,-8.83903 0.008,-9.3303 0.22596,-9.24349 0.12601,0.0504 0.99426,0.37549 1.92966,0.72237 2.45768,0.91144 3.47618,1.35226 5.12431,2.21791 6.54691,3.43865 13.24281,9.29723 16.97635,14.85344 1.01174,1.50566 2.12449,3.7192 2.63054,5.23283 0.47766,1.42872 0.4135,2.77202 -0.23643,4.95166 -0.25424,0.85258 -0.51775,1.60566 -0.58558,1.6735 -0.0772,0.0772 -0.15364,-0.68351 -0.20451,-2.03551 -0.11805,-3.14033 -0.4247,-4.12054 -1.84279,-5.89056 -0.87202,-1.08841 -1.54395,-2.42324 -1.84754,-3.67028 -0.38559,-1.5838 -0.89691,-2.29096 -2.02611,-2.80211 -1.4363,-0.65016 -3.11521,-0.004 -3.7079,1.42847 -0.10424,0.25185 -0.25608,0.89941 -0.33742,1.43906 -0.21685,1.43872 -0.46588,2.08292 -1.26909,3.28293 -0.39616,0.59185 -0.8595,1.35084 -1.02968,1.68667 -0.72382,1.4284 -1.20789,3.5213 -1.44519,6.24853 -0.0517,0.5936 -0.13082,1.07928 -0.17562,1.07928 -0.045,0 -0.2399,-0.39737 -0.43316,-0.88305 z"
     style="fill:#000000;fill-opacity:0.99789894;fill-rule:nonzero;stroke:#000000;stroke-width:2.09318;stroke-linejoin:round;stroke-miterlimit:4;stroke-dasharray:none;stroke-opacity:1" />
  <path
     inkscape:connector-curvature="0"
     id="path5848"
     d="m 129.48826,263.27344 c -0.84089,-2.9408 -1.29766,-5.55608 -1.14649,-6.56416 0.13333,-0.88974 2.24687,-4.99455 3.26315,-6.33776 2.93594,-3.88052 8.64307,-9.3017 12.36559,-11.74603 1.28846,-0.84604 5.05084,-2.77601 7.00712,-3.59442 1.61386,-0.67513 5.31548,-2.07285 5.35102,-2.0205 0.0167,0.0234 -0.0147,6.28292 -0.067,13.90993 -0.10801,15.59431 -0.14925,16.26656 -0.9345,15.22401 -0.54595,-0.72485 -2.40328,-5.31661 -3.04187,-7.52024 -0.46429,-1.60216 -0.43613,-2.01188 0.21193,-3.08446 0.43959,-0.72755 0.55087,-1.04659 0.60642,-1.73876 0.12643,-1.57495 -0.45719,-2.7573 -1.66906,-3.38143 -0.64376,-0.33155 -0.82067,-0.36444 -1.69972,-0.31602 -1.12508,0.0619 -1.76172,0.33507 -2.53461,1.0873 -0.71134,0.69234 -1.12558,1.64107 -1.12717,2.58151 -0.002,0.90044 0.20848,1.3621 1.01402,2.22999 l 0.58841,0.63388 -0.0651,0.80518 c -0.0722,0.89324 -0.7081,2.62262 -2.22021,6.0381 -1.35648,3.06397 -2.01102,4.13446 -2.27089,3.71401 -0.0553,-0.0894 -0.14966,-1.13808 -0.21005,-2.33065 -0.17499,-3.45908 -0.42027,-4.30271 -1.67607,-5.76595 -1.21844,-1.41967 -1.608,-2.24503 -1.90552,-4.03725 -0.22776,-1.37183 -0.6438,-2.11413 -1.44965,-2.58638 -0.82417,-0.483 -1.66667,-0.54728 -2.47671,-0.18901 -1.17576,0.52009 -1.55213,1.11939 -1.81717,2.8935 -0.21631,1.44813 -0.57035,2.1888 -1.54914,3.24106 -1.39515,1.49984 -1.83208,3.06328 -2.29172,8.20037 -0.10445,1.1663 -0.10675,1.17248 -0.25497,0.65412 v 0 z"
     style="fill:#000000;fill-opacity:0.99789894;fill-rule:nonzero;stroke:#000000;stroke-width:2.09318;stroke-linejoin:round;stroke-miterlimit:4;stroke-dasharray:none;stroke-opacity:1" />
  <path
     inkscape:connector-curvature="0"
     id="path5850"
     d="m 167.81355,243.58132 c -0.85133,-0.51905 -1.21722,-2.16273 -0.69862,-3.13862 0.38163,-0.71816 1.00724,-1.07943 1.74961,-1.01031 1.12043,0.10424 2.37988,1.27952 2.35379,2.19635 -0.0241,0.8452 -1.57637,2.21791 -2.50701,2.21693 -0.25575,-2.8e-4 -0.65973,-0.11931 -0.89777,-0.26435 z"
     style="fill:#000000;fill-opacity:0.99789894;fill-rule:nonzero;stroke:#000000;stroke-width:2.09318;stroke-linejoin:round;stroke-miterlimit:4;stroke-dasharray:none;stroke-opacity:1" />
  <path
     inkscape:connector-curvature="0"
     id="path5852"
     d="m 164.27981,245.64069 c -0.4552,-0.54847 -0.61843,-2.21682 -0.80275,-8.2049 -0.0741,-2.41041 -0.17018,-5.13318 -0.21303,-6.05057 l -0.0781,-1.66802 h 5.76808 5.7681 l -0.008,4.41531 c -0.0126,6.41726 -0.16138,10.60661 -0.3923,11.07523 -0.30301,0.61472 -0.52995,0.68495 -1.36389,0.42207 -0.40466,-0.12748 -0.76782,-0.31557 -0.80707,-0.4178 -0.0391,-0.10215 0.25999,-0.74107 0.66494,-1.41968 0.88211,-1.47826 1.04634,-1.91211 0.94955,-2.50848 -0.0929,-0.57213 -0.83441,-1.80051 -1.48566,-2.46093 -0.2751,-0.279 -0.824,-0.66107 -1.21973,-0.84908 -0.64265,-0.30528 -0.87332,-0.34139 -2.15859,-0.33798 -1.27238,0.004 -1.53926,0.0458 -2.30415,0.36649 -1.65767,0.69492 -2.14442,1.47262 -2.1427,3.42356 0.001,1.49612 0.14024,1.85989 1.16598,3.05311 0.33016,0.38403 0.5705,0.74647 0.53408,0.80539 -0.0823,0.13313 -1.21046,0.52409 -1.51226,0.52409 -0.12224,0 -0.28501,-0.0756 -0.3616,-0.16787 v 0 z"
     style="fill:#000000;fill-opacity:0.99789894;fill-rule:nonzero;stroke:#000000;stroke-width:2.09318;stroke-linejoin:round;stroke-miterlimit:4;stroke-dasharray:none;stroke-opacity:1" />
  <path
     inkscape:connector-curvature="0"
     id="path5854"
     d="m 200.87674,251.96728 c -0.42447,-0.42448 -0.49562,-0.92475 -0.17687,-1.24354 0.31699,-0.31699 0.5661,-0.24963 1.11805,0.30232 0.58071,0.58071 0.62931,0.83128 0.21715,1.11997 -0.42546,0.29801 -0.72833,0.25129 -1.15837,-0.17875 v 0 z"
     style="fill:#000000;fill-opacity:0.99789894;fill-rule:nonzero;stroke:#000000;stroke-width:2.09318;stroke-linejoin:round;stroke-miterlimit:4;stroke-dasharray:none;stroke-opacity:1" />
  <path
     inkscape:connector-curvature="0"
     id="path5856"
     d="m 210.96022,254.83533 c -0.31487,-0.31488 -0.32714,-0.50239 -0.058,-0.88665 0.3823,-0.5458 1.23542,-0.24838 1.23542,0.43069 0,0.30839 -0.42693,0.7176 -0.74865,0.7176 -0.0919,0 -0.28486,-0.11784 -0.42876,-0.26164 z"
     style="fill:#000000;fill-opacity:0.99789894;fill-rule:nonzero;stroke:#000000;stroke-width:2.09318;stroke-linejoin:round;stroke-miterlimit:4;stroke-dasharray:none;stroke-opacity:1" />
  <path
     inkscape:connector-curvature="0"
     id="path5858"
     d="m 187.5573,250.70651 c -0.74767,-0.62912 -0.64533,-1.57589 0.25193,-2.3309 0.51174,-0.43058 0.73416,-0.32996 1.21224,0.54846 0.46383,0.85219 0.46663,1.48561 0.008,1.84624 -0.4633,0.36443 -0.99055,0.34159 -1.47234,-0.0638 z"
     style="fill:#000000;fill-opacity:0.99789894;fill-rule:nonzero;stroke:#000000;stroke-width:2.09318;stroke-linejoin:round;stroke-miterlimit:4;stroke-dasharray:none;stroke-opacity:1" />
  <path
     sodipodi:nodetypes="cccccccccccccccccccccccccccsccccccccsscscccc"
     inkscape:connector-curvature="0"
     id="path5860"
     d="m 123.58938,284.17252 c 0.0146,-2.18541 -0.0517,-5.45518 0.0188,-4.60112 0.0509,0.6116 0.25598,4.31479 0.34257,4.72432 0.17625,0.8329 0.30799,0.91784 1.67402,1.07935 0.59034,0.0697 4.74391,-0.14129 4.84903,-0.24643 0.0387,-0.0387 0.3733,-7.11898 0.45324,-9.59048 l 0.0433,-1.34095 h -3.69548 -3.69549 l -0.0894,5.0954 c -0.032,0.89584 -0.004,-3.17631 -0.0241,-4.6048 l -0.0272,-1.92966 h 16.48377 16.48376 v 7.12988 7.12989 h -16.41835 -16.41836 l 0.0188,-2.8454 z m 28.35756,1.08079 c 1.21682,-0.29667 1.79169,-0.66243 2.12579,-1.35261 0.28136,-0.58122 0.28184,-0.59846 0.12915,-4.58745 -0.0844,-2.20221 -0.1526,-4.25424 -0.15155,-4.56003 l 0.002,-0.55601 h -6.01789 -6.01788 l 0.001,3.95742 c 9.2e-4,3.51323 0.11429,5.68352 0.34447,6.60096 0.0934,0.37233 0.65734,0.53617 2.37961,0.69144 1.87925,0.16934 6.19157,0.0536 7.20557,-0.19362 h 2e-5 z m -13.2595,-0.2686 c 1.07177,-0.66559 1.45967,-1.8007 1.58527,-4.63879 0.0898,-2.03007 -0.0816,-3.62285 -0.49324,-4.57946 -0.24147,-0.56128 -0.37891,-0.69803 -1.0163,-1.01104 -0.68083,-0.33435 -0.85684,-0.36198 -2.30695,-0.36198 -1.42975,0 -1.63672,0.0314 -2.31868,0.35097 -1.11909,0.52451 -1.4302,1.1377 -1.70271,3.35616 -0.26194,2.13254 0.22422,5.28686 0.9588,6.22073 0.5496,0.69868 1.94159,1.13431 3.47413,1.08719 1.06341,-0.0326 1.2658,-0.0797 1.81968,-0.42378 z"
     style="fill:#000000;fill-opacity:0.99789894;fill-rule:nonzero;stroke:#000000;stroke-width:2.09318;stroke-linejoin:round;stroke-miterlimit:4;stroke-dasharray:none;stroke-opacity:1" />
  <path
     inkscape:connector-curvature="0"
     id="path5862"
     d="m 182.04822,279.88803 v -7.12988 h 16.22212 16.22212 l 0.002,6.83554 c 0.001,3.75954 0.0373,6.96798 0.0806,7.12988 l 0.0789,0.29435 h -16.30279 -16.30279 v -7.12989 z m 31.92095,-0.0188 v -5.70868 l -1.40637,0.0858 c -0.77349,0.0473 -2.33259,0.15259 -3.46467,0.2342 l -2.0583,0.14841 -0.0846,0.45066 c -0.0465,0.24787 -0.0917,2.4369 -0.10027,4.86452 -0.0167,4.87597 -0.0534,4.6574 0.84496,5.11575 0.68068,0.34725 1.82035,0.48316 4.20872,0.50188 l 2.06049,0.0167 v -5.70868 z m -20.17955,5.3625 2.1259,-0.0812 v -5.25565 -5.25566 l -4.80778,-0.1618 c -2.64427,-0.089 -5.44642,-0.19801 -6.22701,-0.24218 l -1.41924,-0.0804 0.0599,4.56685 c 0.0603,4.5907 0.18859,6.02917 0.56622,6.34258 0.41931,0.34801 3.56167,0.40225 9.70204,0.16745 z m 9.64825,-0.18775 c 0.8185,-0.40646 1.15024,-1.02057 1.44295,-2.67134 0.25106,-1.41584 0.28428,-5.34065 0.053,-6.25918 -0.29491,-1.17113 -1.45635,-1.71898 -3.9816,-1.8781 -0.94507,-0.0594 -1.08983,-0.036 -1.49243,0.2418 -0.98053,0.67677 -1.23644,1.49126 -1.45547,4.63224 -0.16243,2.32833 -0.0245,4.32635 0.35362,5.12307 0.41284,0.86999 1.38438,1.2283 3.18299,1.1739 1.01109,-0.0306 1.36479,-0.0982 1.89694,-0.36239 z"
     style="fill:#000000;fill-opacity:0.99789894;fill-rule:nonzero;stroke:#000000;stroke-width:2.09318;stroke-linejoin:round;stroke-miterlimit:4;stroke-dasharray:none;stroke-opacity:1" />
  <path
     inkscape:connector-curvature="0"
     id="path5910"
     d="m 165.81264,283.58197 c -0.84922,-0.0735 -1.65308,-0.22437 -2.11591,-0.39729 -0.73338,-0.27402 -1.50281,-1.28046 -1.63939,-2.14437 -0.14045,-0.88908 0.42663,-1.87371 1.90565,-3.30837 1.68281,-1.63233 3.37987,-2.58097 4.61103,-2.57756 2.53264,0.006 6.04248,2.38151 7.17927,4.8569 0.48639,1.05915 0.44563,1.84275 -0.1256,2.41391 -0.52339,0.5234 -2.22272,0.90993 -4.97399,1.13135 -1.32546,0.10675 -3.7539,0.11952 -4.84112,0.0253 z"
     style="fill:#000000;fill-opacity:0.99789894;fill-rule:nonzero;stroke:#000000;stroke-width:2.09318;stroke-linejoin:round;stroke-miterlimit:4;stroke-dasharray:none;stroke-opacity:1" />
  <path
     inkscape:connector-curvature="0"
     id="path5864"
     d="m 158.89844,260.1664 0.006,-6.83555 2.44697,-2.33221 c 3.74408,-3.56856 3.98473,-3.69086 7.22202,-3.67053 1.75932,0.0105 2.35217,0.0651 3.20518,0.29279 4.48791,1.19748 6.92236,4.58736 7.5163,10.46618 0.0754,0.74515 0.1369,3.0558 0.1369,5.13483 v 3.78 h -10.26965 -10.26965 l 0.006,-6.83551 z"
     style="fill:#000000;fill-opacity:0.99789894;fill-rule:nonzero;stroke:#000000;stroke-width:2.09318;stroke-linejoin:round;stroke-miterlimit:4;stroke-dasharray:none;stroke-opacity:1" />
  <path
     inkscape:connector-curvature="0"
     id="path5868"
     d="m 196.76438,266.51134 c 0.0368,-0.26983 0.18651,-1.81518 0.33253,-3.43413 0.44492,-4.93284 0.78755,-6.43692 1.63604,-7.1819 0.61102,-0.53648 1.34393,-0.71139 2.64649,-0.63162 1.94446,0.11911 3.08848,0.95043 3.74488,2.72132 0.49722,1.34141 0.6012,2.20954 0.69228,5.77903 l 0.0827,3.23787 h -4.60091 -4.60093 l 0.067,-0.49057 z"
     style="fill:#000000;fill-opacity:0.99789894;fill-rule:nonzero;stroke:#000000;stroke-width:2.09318;stroke-linejoin:round;stroke-miterlimit:4;stroke-dasharray:none;stroke-opacity:1" />
  <path
     inkscape:connector-curvature="0"
     id="path5870"
     d="m 183.30065,266.70757 c 0.19509,-0.62002 2.08282,-4.96068 2.97265,-6.83554 1.01167,-2.13156 1.88796,-3.72847 2.046,-3.72847 0.11135,0 1.67939,3.40889 2.85833,6.21412 0.89224,2.12307 1.64666,4.24685 1.54477,4.34874 -0.0969,0.0969 -4.77672,0.27994 -7.37971,0.2885 l -2.13468,0.006 0.0927,-0.29434 z"
     style="fill:#000000;fill-opacity:0.99789894;fill-rule:nonzero;stroke:#000000;stroke-width:2.09318;stroke-linejoin:round;stroke-miterlimit:4;stroke-dasharray:none;stroke-opacity:1" />
  <path
     inkscape:connector-curvature="0"
     id="path5872"
     d="m 144.67937,267.01475 c -0.0446,-0.0147 -0.081,-0.0414 -0.081,-0.062 0,-0.0687 0.19362,-0.48191 1.03003,-2.19951 1.53482,-3.15149 1.87785,-3.9968 3.35042,-8.25618 0.26824,-0.77588 0.50149,-1.42606 0.51832,-1.4448 0.0295,-0.0329 0.35992,0.66434 1.89026,3.98872 1.79875,3.90748 3.15538,7.08773 3.15538,7.39693 0,0.25223 -0.38247,0.34967 -1.64597,0.41937 -2.03076,0.11198 -7.99369,0.22621 -8.2175,0.1574 z"
     style="fill:#000000;fill-opacity:0.99789894;fill-rule:nonzero;stroke:#000000;stroke-width:2.09318;stroke-linejoin:round;stroke-miterlimit:4;stroke-dasharray:none;stroke-opacity:1" />
  <path
     inkscape:connector-curvature="0"
     id="path5874"
     d="m 131.70157,265.39934 c 0.002,-2.21232 0.22336,-5.08462 0.46445,-6.015 0.47649,-1.83883 1.2795,-2.98635 2.51399,-3.59256 0.66169,-0.32492 0.89358,-0.36769 1.9917,-0.3672 1.12925,4.6e-4 1.3062,0.0356 1.9365,0.38428 0.76562,0.42356 1.38598,1.18499 1.83113,2.24753 0.50806,1.2127 0.68037,2.72054 0.68037,5.95373 v 2.99179 h -4.70965 -4.70965 z"
     style="fill:#000000;fill-opacity:0.99789894;fill-rule:nonzero;stroke:#000000;stroke-width:2.09318;stroke-linejoin:round;stroke-miterlimit:4;stroke-dasharray:none;stroke-opacity:1" />
  <path
     inkscape:connector-curvature="0"
     id="path5876"
     d="m 125.10178,266.6709 c -0.25039,-0.18943 -0.2498,-0.20938 0.0465,-1.54443 0.59013,-2.65865 1.12726,-4.43915 1.28245,-4.25114 0.26334,0.31902 1.18511,3.39128 1.45971,4.8653 0.17709,0.95078 -0.0567,1.1317 -1.45572,1.12632 -0.7405,-0.002 -1.1589,-0.0645 -1.33297,-0.19613 z"
     style="fill:#000000;fill-opacity:0.99789894;fill-rule:nonzero;stroke:#000000;stroke-width:2.09318;stroke-linejoin:round;stroke-miterlimit:4;stroke-dasharray:none;stroke-opacity:1" />
  <path
     inkscape:connector-curvature="0"
     id="path5878"
     d="m 178.69843,249.83134 c -0.46257,-0.57971 -1.00343,-2.1835 -1.20373,-3.56942 -0.1752,-1.21249 -0.17854,-13.80307 -0.004,-14.72399 0.16075,-0.8474 0.53637,-1.60969 0.82069,-1.66533 0.29325,-0.0574 0.55396,0.51894 0.75821,1.67613 0.13103,0.74224 0.17457,2.98835 0.17918,9.22306 0.004,4.53305 -0.0408,8.46265 -0.0982,8.73249 -0.10864,0.51255 -0.2327,0.60222 -0.4523,0.32706 z"
     style="fill:#000000;fill-opacity:0.99789894;fill-rule:nonzero;stroke:#000000;stroke-width:2.09318;stroke-linejoin:round;stroke-miterlimit:4;stroke-dasharray:none;stroke-opacity:1" />
  <path
     inkscape:connector-curvature="0"
     id="path5880"
     d="m 159.30366,248.42403 c -0.38881,-0.7265 -0.4789,-13.4999 -0.1168,-16.54824 0.16285,-1.37042 0.33688,-1.81581 0.73161,-1.87224 0.80832,-0.11554 0.98034,1.39889 1.00012,8.80589 0.0167,6.58549 -0.13941,8.2904 -0.86197,9.35675 -0.36978,0.54576 -0.56345,0.61207 -0.75305,0.25784 v 0 z"
     style="fill:#000000;fill-opacity:0.99789894;fill-rule:nonzero;stroke:#000000;stroke-width:2.09318;stroke-linejoin:round;stroke-miterlimit:4;stroke-dasharray:none;stroke-opacity:1" />
  <path
     inkscape:connector-curvature="0"
     id="path5882"
     d="m 210.24545,266.88028 c -0.15197,-0.0649 -0.30971,-0.20555 -0.35072,-0.31239 -0.0892,-0.23221 0.29979,-2.1373 0.80491,-3.94306 l 0.36441,-1.30273 0.46705,0.98394 c 0.64042,1.34926 1.31401,3.49563 1.21758,3.87985 -0.0471,0.18755 -0.24813,0.38115 -0.50908,0.49018 -0.5758,0.24059 -1.65154,0.35075 -1.99415,0.20429 z"
     style="fill:#000000;fill-opacity:0.99789894;fill-rule:nonzero;stroke:#000000;stroke-width:2.09318;stroke-linejoin:round;stroke-miterlimit:4;stroke-dasharray:none;stroke-opacity:1" />
  <path
     inkscape:connector-curvature="0"
     id="path5884"
     d="m 143.70016,282.21669 c 0.0749,-0.39573 0.21181,-1.85055 0.30403,-3.23293 l 0.16766,-2.51342 2.37344,-0.1685 c 1.30538,-0.0927 3.12065,-0.1685 4.03392,-0.1685 h 1.66052 v 3.40141 3.40141 h -4.33796 -4.33796 l 0.13647,-0.71953 z"
     style="fill:#000000;fill-opacity:0.99789894;fill-rule:nonzero;stroke:#000000;stroke-width:2.09318;stroke-linejoin:round;stroke-miterlimit:4;stroke-dasharray:none;stroke-opacity:1" />
  <path
     inkscape:connector-curvature="0"
     id="path5886"
     d="m 135.20192,282.21669 c -0.50632,-1.30377 0.15553,-5.35106 0.92309,-5.64563 0.85107,-0.32658 1.42117,0.8263 1.62994,3.2961 0.20534,2.42842 -0.0787,3.06906 -1.36057,3.06906 -0.75387,0 -0.96175,-0.12538 -1.19246,-0.71953 z"
     style="fill:#000000;fill-opacity:0.99789894;fill-rule:nonzero;stroke:#000000;stroke-width:2.09318;stroke-linejoin:round;stroke-miterlimit:4;stroke-dasharray:none;stroke-opacity:1" />
  <path
     inkscape:connector-curvature="0"
     id="path5888"
     d="m 126.61182,282.56006 c -0.36897,-0.44457 -0.43015,-5.85305 -0.0703,-6.21291 0.3649,-0.36488 1.54593,0.20472 2.06412,0.99562 0.59003,0.90051 0.673,4.49263 0.1191,5.16044 -0.4418,0.53275 -1.69015,0.56635 -2.11302,0.0569 v 0 z"
     style="fill:#000000;fill-opacity:0.99789894;fill-rule:nonzero;stroke:#000000;stroke-width:2.09318;stroke-linejoin:round;stroke-miterlimit:4;stroke-dasharray:none;stroke-opacity:1" />
  <path
     inkscape:connector-curvature="0"
     id="path5896"
     d="m 209.58241,282.2698 c -0.36892,-0.80971 -0.40197,-4.53548 -0.0483,-5.46525 0.40907,-1.07595 1.24747,-0.87561 1.84505,0.44085 0.63986,1.40967 0.70073,4.26441 0.10885,5.10932 -0.55926,0.79844 -1.5226,0.75551 -1.90553,-0.085 z"
     style="fill:#000000;fill-opacity:0.99789894;fill-rule:nonzero;stroke:#000000;stroke-width:2.09318;stroke-linejoin:round;stroke-miterlimit:4;stroke-dasharray:none;stroke-opacity:1" />
  <path
     inkscape:connector-curvature="0"
     id="path5902"
     d="m 135.08295,270.86173 c -5.489,-0.0944 -9.94963,-0.30757 -11.05363,-0.52834 -0.5481,-0.10968 -0.75103,-0.2808 -0.44534,-0.37572 0.52838,-0.16411 4.88752,-0.4358 9.04756,-0.56401 16.86002,-0.51963 58.43224,-0.4418 73.31117,0.13731 4.51676,0.17583 7.97538,0.44579 8.1672,0.63759 0.19634,0.19634 -2.61883,0.42104 -7.19588,0.5743 -2.54802,0.0854 -67.52839,0.19299 -71.83108,0.11889 z"
     style="fill:#000000;fill-opacity:0.99789894;fill-rule:nonzero;stroke:#000000;stroke-width:2.09318;stroke-linejoin:round;stroke-miterlimit:4;stroke-dasharray:none;stroke-opacity:1" />
  <path
     inkscape:connector-curvature="0"
     id="path5904"
     d="m 137.9044,289.97731 c -6.07691,-0.0695 -7.87551,-0.11533 -11.55659,-0.294 -3.40971,-0.16557 -3.26446,-0.26693 0.64084,-0.44744 7.56587,-0.34973 27.31332,-0.50276 48.8433,-0.37853 23.99406,0.13836 34.83006,0.29237 37.51127,0.53284 0.61422,0.055 0.65665,0.0703 0.37001,0.13291 -0.41131,0.09 -4.03784,0.2466 -8.55682,0.36972 -4.20651,0.11471 -58.64432,0.18295 -67.25201,0.0844 v 0 z"
     style="fill:#000000;fill-opacity:0.99789894;fill-rule:nonzero;stroke:#000000;stroke-width:2.09318;stroke-linejoin:round;stroke-miterlimit:4;stroke-dasharray:none;stroke-opacity:1" />
  <path
     inkscape:connector-curvature="0"
     id="path5906"
     d="m 216.64046,280.20297 c -0.0283,-1.08996 -0.0339,-1.99917 -0.0126,-2.02048 0.0582,-0.0582 0.1731,0.28149 0.2768,0.81917 0.16285,0.84376 0.10801,2.11279 -0.12475,2.88873 -0.0808,0.26908 -0.0927,0.12433 -0.13962,-1.68742 z"
     style="fill:#000000;fill-opacity:0.99789894;fill-rule:nonzero;stroke:#000000;stroke-width:2.09318;stroke-linejoin:round;stroke-miterlimit:4;stroke-dasharray:none;stroke-opacity:1" />
  <path
     inkscape:connector-curvature="0"
     id="path5908"
     d="m 120.81765,281.68524 c -0.0827,-0.81436 -0.10047,-1.98243 -0.0433,-2.86041 0.0563,-0.86666 0.0875,-1.05752 0.16055,-0.98443 0.0774,0.0774 0.17708,1.23276 0.17708,2.05492 0,1.41618 -0.20534,2.66491 -0.29423,1.78992 v 0 z"
     style="fill:#000000;fill-opacity:0.99789894;fill-rule:nonzero;stroke:#000000;stroke-width:2.09318;stroke-linejoin:round;stroke-miterlimit:4;stroke-dasharray:none;stroke-opacity:1" />
  <path
     inkscape:connector-curvature="0"
     id="path5920"
     d="m 158.78089,279.88468 v -7.17323 l 2.6599,0.0433 c 1.46294,0.0239 3.30846,0.0433 4.10114,0.0433 h 1.44124 l -1.43561,0.96569 c -1.73461,1.16682 -2.04189,1.3915 -2.84197,2.07804 -1.63992,1.4072 -2.6891,2.88423 -2.98112,4.1968 -0.14506,0.65219 -0.10173,1.60266 0.0967,2.12206 0.52771,1.38093 2.03578,2.50961 4.30216,3.21987 0.77036,0.24141 2.28391,0.5422 3.19377,0.63467 2.67969,0.27239 6.35336,-0.41311 8.76518,-1.63552 1.24544,-0.63124 2.02628,-1.25522 2.42748,-1.93983 0.20722,-0.35379 0.27969,-0.98976 0.15636,-1.37409 -0.52886,-1.64777 -3.15379,-4.77709 -5.33507,-6.36024 -0.28061,-0.20367 -1.18926,-0.71505 -2.01922,-1.13643 l -1.50906,-0.76614 1.67362,-0.002 c 0.92048,-10e-4 3.09133,-0.022 4.8241,-0.0458 l 3.15053,-0.0433 v 7.17328 7.17327 H 169.11596 158.7809 v -7.17323 z"
     style="fill:#000000;fill-opacity:0.99789894;fill-rule:nonzero;stroke:#000000;stroke-width:2.09318;stroke-linejoin:round;stroke-miterlimit:4;stroke-dasharray:none;stroke-opacity:1" />
  <path
     inkscape:connector-curvature="0"
     id="path5892"
     d="m 185.91894,279.66563 0.0733,-3.336 3.85929,-0.0724 3.85929,-0.0724 v 3.4084 3.4084 h -3.93253 -3.93251 l 0.0733,-3.336 z"
     style="fill:#000000;fill-opacity:0.99789894;fill-rule:nonzero;stroke:#000000;stroke-width:2.09318;stroke-linejoin:round;stroke-miterlimit:4;stroke-dasharray:none;stroke-opacity:1" />
  <path
     sodipodi:nodetypes="csssssscsssssssscc"
     inkscape:connector-curvature="0"
     id="path5721"
     d="M 34.217701,242.77932 C 14.680617,221.55714 8.3444459,206.91797 10.47463,187.9231 c 1.409901,-12.5721 5.925888,-21.76841 15.305078,-31.16715 10.714574,-10.73689 24.310112,-16.205 40.291056,-16.205 15.768276,0 33.641368,5.90025 44.357846,13.60561 5.50227,3.95625 16.66269,22.47042 24.25205,37.89246 5.53689,11.25135 11.92374,28.71544 12.88605,35.23549 l 0.5045,3.41808 -5.5851,3.6317 c -3.07177,1.99744 -5.97223,4.31144 -6.35312,4.31144 -0.3809,0 -1.49855,-2.50628 -2.57599,-4.7387 -6.6379,-13.75363 -22.77075,-31.8545 -34.698591,-38.93141 -10.66664,-6.32866 -18.466465,-8.53271 -30.335363,-8.57214 -8.254129,-0.0274 -10.618121,0.27843 -14.769999,1.9109 -6.110444,2.40253 -13.893482,9.4105 -17.20158,15.48859 -6.389589,11.73979 -6.17035,23.13795 0.732424,38.0781 1.610866,3.48652 4.931356,9.31525 4.609447,9.26015 -0.32191,-0.055 -5.02218,-5.47958 -7.675637,-8.3619 z"
     style="fill:#000000;fill-opacity:0.99789894;fill-rule:nonzero;stroke:#000000;stroke-width:2.09318;stroke-linejoin:round;stroke-miterlimit:4;stroke-dasharray:none;stroke-opacity:1" />
  <path
     sodipodi:nodetypes="cscsscsssssscccc"
     inkscape:connector-curvature="0"
     id="path5723"
     d="m 172.57708,225.2494 c 0.19885,-1.35428 -0.0601,-2.72284 -0.57525,-3.04124 -1.2292,-0.75967 -1.73062,-6.27396 -0.48518,-9.00729 0.75041,-1.64698 0.73416,-2.97631 -0.0693,-3.94443 -1.28808,-1.55204 -1.0891,-18.61644 -1.59668,-110.817794 l -0.37061,-67.320596 4.42428,3.203724 c 5.89828,4.271083 21.2569,17.038461 31.55567,26.231735 12.08612,10.788777 19.3156,21.238061 23.03622,33.295973 2.62928,8.521008 2.61459,20.553568 -0.0373,30.465618 -2.96042,11.06577 -8.37482,25.18833 -14.82161,35.18272 -13.03851,20.21348 -21.0788,37.04199 -26.81144,61.59144 l -1.54644,6.62251 h -6.5319 l -7.77287,0.16181 z"
     style="fill:#000000;fill-opacity:0.99789894;fill-rule:nonzero;stroke:#000000;stroke-width:2.09318;stroke-linejoin:round;stroke-miterlimit:4;stroke-dasharray:none;stroke-opacity:1" />
  <path
     sodipodi:nodetypes="cscssssssssssc"
     inkscape:connector-curvature="0"
     id="path5725"
     d="m 216.3944,253.19363 c -0.022,-0.48815 -2.72705,-5.66546 -6.01149,-7.99724 -3.28445,-2.33177 -6.58043,-4.52032 -6.58587,-5.04805 -0.0188,-1.81533 4.25356,-9.45615 8.08573,-15.42738 4.88583,-7.61305 17.78049,-20.83496 24.98029,-25.61422 11.10708,-7.37297 21.37786,-10.30174 34.00895,-9.69784 9.31396,0.4453 15.1929,3.01453 20.92833,9.1462 9.6459,10.31224 11.93019,23.23416 6.54034,36.99782 -3.27019,8.35081 -6.15984,15.4229 -6.89444,15.4229 -0.3999,0 -2.10622,-3.78519 -3.79185,-7.13239 -1.68562,-3.3472 -4.75612,-7.89402 -6.82334,-10.10404 -10.88615,-11.63817 -31.8237,-13.6001 -45.86738,-4.29794 -5.26238,3.48564 -13.82104,12.72603 -16.4319,17.74072 -1.15366,2.21586 -2.11547,6.49958 -2.13737,6.01146 z"
     style="fill:#000000;fill-opacity:0.99789894;fill-rule:nonzero;stroke:#000000;stroke-width:2.09318;stroke-linejoin:round;stroke-miterlimit:4;stroke-dasharray:none;stroke-opacity:1" />
  <path
     inkscape:connector-curvature="0"
     id="path5727"
     d="m 225.382,344.64144 c -1.84972,-0.41495 -4.60752,-1.70362 -6.12844,-2.86368 -3.6315,-2.76988 -10.79914,-13.5588 -13.16054,-19.80955 -2.39562,-6.34134 -5.11972,-19.70889 -5.11972,-25.12312 v -4.18998 h 6.70302 6.70302 l 0.94679,6.69488 c 1.26369,8.93596 3.87414,15.60489 8.19795,20.94339 5.33379,6.58551 7.8672,7.62326 17.18429,7.03922 4.22987,-0.26514 8.61292,-0.73742 9.74009,-1.04949 l 2.04943,-0.56742 -1.62217,2.7843 c -2.61971,4.49648 -11.16776,13.39292 -14.20239,14.78122 -3.97101,1.81669 -7.40999,2.23097 -11.29133,1.36023 z"
     style="fill:#000000;fill-opacity:0.99789894;fill-rule:nonzero;stroke:#000000;stroke-width:2.09318;stroke-linejoin:round;stroke-miterlimit:4;stroke-dasharray:none;stroke-opacity:1" />
  <path
     sodipodi:nodetypes="scccssssss"
     inkscape:connector-curvature="0"
     id="path5729"
     d="m 170.21066,351.61685 v -58.96174 h 5.00495 5.00495 l 0.60064,8.72079 c 0.69119,10.03584 2.40701,19.88432 4.95673,28.45075 1.96312,6.59562 8.55699,22.55703 10.61812,25.7027 2.95491,4.50977 -0.99303,23.28835 -6.99226,33.25903 -5.62221,9.34408 -16.68825,22.99867 -18.92037,22.99867 -0.59118,0 -0.27276,-20.42417 -0.27276,-60.1702 z"
     style="fill:#000000;fill-opacity:0.99789894;fill-rule:nonzero;stroke:#000000;stroke-width:2.09318;stroke-linejoin:round;stroke-miterlimit:4;stroke-dasharray:none;stroke-opacity:1" />
  <path
     sodipodi:nodetypes="cssssscccsssscc"
     inkscape:connector-curvature="0"
     id="path5731"
     d="m 96.978339,365.40697 c -10.262574,-3.54603 -15.262817,-9.22093 -16.594998,-18.83403 -0.872541,-6.29638 0.897491,-16.11962 1.666022,-19.44593 0.76581,-3.31452 0.931191,-1.45783 1.420137,1.00268 3.314524,16.67968 12.301243,23.98514 25.58929,21.67315 19.39465,-3.37448 29.60491,-19.35772 32.54894,-50.95247 l 0.5773,-6.19526 h 6.44828 6.44829 l -0.57025,8.1124 c -1.11422,15.85096 -5.74169,33.24181 -12.50713,47.00402 -3.00626,6.11532 -3.9264,7.20903 -8.72641,10.37253 -6.7052,4.41914 -10.02387,6.09985 -15.06668,7.63032 -5.5486,1.68396 -15.80975,1.50642 -21.232791,-0.36741 z"
     style="fill:#000000;fill-opacity:0.99789894;fill-rule:nonzero;stroke:#000000;stroke-width:2.09318;stroke-linejoin:round;stroke-miterlimit:4;stroke-dasharray:none;stroke-opacity:1" />
  <path
     inkscape:connector-curvature="0"
     id="path5733"
     d="m 136.76674,241.19866 c -0.17018,-0.40748 -0.3072,-0.81605 -0.30435,-0.90794 0.006,-0.21413 12.35563,-8.39182 12.67234,-8.39182 0.0517,0 0.15699,0.26437 0.23404,0.58749 0.077,0.32311 0.18818,0.74968 0.24693,0.94792 0.0833,0.28136 -0.44779,0.64319 -2.42122,1.6493 -3.10338,1.58221 -5.91609,3.43528 -8.16814,5.38132 -0.93851,0.81101 -1.76122,1.47456 -1.82822,1.47456 -0.067,0 -0.26112,-0.33338 -0.43138,-0.74083 z"
     style="fill:#000000;fill-opacity:0.99789894;fill-rule:nonzero;stroke:#000000;stroke-width:2.09318;stroke-linejoin:round;stroke-miterlimit:4;stroke-dasharray:none;stroke-opacity:1" />
  <path
     inkscape:connector-curvature="0"
     id="path5735"
     d="m 183.45567,231.75908 c -1.24496,-0.72761 -2.13627,-1.55944 -2.13627,-1.99371 0,-0.47835 0.42696,-0.85728 0.966,-0.85728 0.66929,0 2.47185,0.65466 2.57078,0.93366 0.0471,0.13271 -0.0324,0.74483 -0.17688,1.36023 l -0.26238,1.11893 -0.96133,-0.56183 z"
     style="fill:#000000;fill-opacity:0.99789894;fill-rule:nonzero;stroke:#000000;stroke-width:2.09318;stroke-linejoin:round;stroke-miterlimit:4;stroke-dasharray:none;stroke-opacity:1" />
  <path
     sodipodi:nodetypes="ccssccscccsscccccccccc"
     inkscape:connector-curvature="0"
     id="path5737"
     d="m 213.62239,262.60476 c -1.32188,-4.38638 -1.45685,-4.99321 -1.03229,-6.23926 0.52503,-1.54087 1.07495,-1.00188 0.66389,-2.77137 -0.29281,-1.26051 -2.45373,-3.32526 -2.45373,-2.691 0,0.12977 -0.14129,0.57445 -0.3141,0.98791 -0.27243,0.65196 -0.36969,0.722 -0.73284,0.52765 -0.23029,-0.12329 -1.02038,-1.06547 -1.75571,-2.0938 -1.60532,-2.24494 -3.68058,-4.76966 -4.84826,-5.89828 l -0.85264,-0.82415 0.31971,-0.93829 c 0.17583,-0.51607 0.36495,-0.93831 0.42027,-0.93831 0.0553,0 2.76203,1.83273 6.01496,4.07272 l 5.91437,4.07271 0.1415,1.00098 c 0.0779,0.55055 0.14987,1.5119 0.16013,2.13634 0.0167,1.01038 -0.0519,1.1947 -0.62218,1.67462 -0.78917,0.66404 -0.80443,1.16059 -0.0839,2.73424 l 0.55691,1.21643 -0.24122,2.81494 c -0.13271,1.5482 -0.26309,3.12583 -0.28987,3.50582 -0.0354,0.50362 -0.29708,-0.13333 -0.96503,-2.3499 z"
     style="fill:#000000;fill-opacity:0.99789894;fill-rule:nonzero;stroke:#000000;stroke-width:2.09318;stroke-linejoin:round;stroke-miterlimit:4;stroke-dasharray:none;stroke-opacity:1" />
  <path
     sodipodi:nodetypes="cssssscsscsssscsssssscccc"
     inkscape:connector-curvature="0"
     id="path5683"
     d="m 150.32565,224.71665 c -4.79315,-19.17687 -15.25547,-41.3177 -28.73222,-60.80442 -4.178,-6.04116 -8.08563,-10.25341 -11.00507,-18.48313 -4.68955,-13.21958 -3.84749,-18.46175 -3.87116,-30.69689 -0.0287,-14.798094 3.34621,-27.531453 10.09183,-38.076542 6.13,-9.58273 34.82766,-37.109961 45.59427,-43.734727 l 3.93333,-2.420198 0.56631,51.318436 c 0.31146,28.225151 0.56628,68.514821 0.56628,89.532641 v 38.21421 l -2.13966,1.40196 c -2.10423,1.37874 -2.16317,1.35268 -3.55842,-1.57319 -1.52114,-3.18987 -2.93725,-4.14449 -4.98338,-3.35931 -1.91362,0.73432 -1.55217,3.27462 0.87667,6.16111 l 2.15842,2.56517 -1.92131,1.34573 c -1.05672,0.74016 -2.38664,1.34574 -2.95537,1.34574 -1.22305,0 -2.34566,3.02801 -1.58121,4.26493 0.85617,1.38533 3.82363,0.99738 6.39922,-0.8366 2.06927,-1.47345 2.44749,-2.36416 3.34536,-1.28232 0.56934,0.68602 1.41061,3.40796 1.77719,5.03331 l 1.47271,3.20491 -7.99283,0.0237 -7.56428,0.50008 z"
     style="fill:#000000;fill-opacity:0.99789894;fill-rule:nonzero;stroke:#000000;stroke-width:2.09318;stroke-linejoin:round;stroke-miterlimit:4;stroke-dasharray:none;stroke-opacity:1" />
  <path
     inkscape:connector-curvature="0"
     id="path5709"
     d="m 122.91747,264.87701 c -0.0787,-0.33728 -0.20158,-1.93506 -0.27335,-3.55064 -0.0957,-2.15541 -0.0647,-2.93742 0.11659,-2.93742 0.13584,0 0.40233,-0.32576 0.5922,-0.72392 0.44028,-0.9233 0.24228,-2.10438 -0.44317,-2.64356 -0.48748,-0.38345 -0.49905,-0.46613 -0.3892,-2.78363 l 0.11324,-2.38844 5.56525,-3.90156 c 3.0609,-2.14584 5.70246,-3.98482 5.87013,-4.08661 0.35531,-0.2157 0.51205,-0.0126 0.89925,1.15962 l 0.27123,0.82184 -2.06848,2.17542 c -1.13766,1.19648 -2.69963,3.12352 -3.47107,4.28233 -0.77144,1.15878 -1.48396,2.10688 -1.58336,2.10688 -0.0994,0 -0.43735,-0.33645 -0.75101,-0.74768 -0.73691,-0.96613 -1.24383,-0.95158 -1.85966,0.0534 -1.15358,1.88245 -1.25453,2.65042 -0.55608,4.22939 0.3639,0.82266 0.4282,1.27055 0.32467,2.26113 -0.11721,1.12217 -1.24512,4.98193 -1.93558,6.62402 l -0.27862,0.66266 -0.14296,-0.61324 v 0 z"
     style="fill:#000000;fill-opacity:0.99789894;fill-rule:nonzero;stroke:#000000;stroke-width:2.09318;stroke-linejoin:round;stroke-miterlimit:4;stroke-dasharray:none;stroke-opacity:1" />
  <path
     inkscape:connector-curvature="0"
     id="path5685"
     d="m 119.63256,252.64915 c -1.80882,-3.68542 -3.49443,-5.8376 -8.48059,-10.82805 -4.64013,-4.64411 -7.77042,-7.22372 -11.436866,-9.42492 -13.185443,-7.91602 -28.413743,-9.02689 -38.341701,-2.79695 -1.904037,1.19481 -4.658595,3.42683 -6.527906,5.28952 -4.25277,4.23779 -6.632963,7.90493 -8.122489,12.51429 -0.376855,1.16617 -0.921416,2.59062 -1.210128,3.16547 l -0.524969,1.04519 -0.536921,-0.93838 c -0.976801,-1.70717 -4.054567,-7.9507 -5.043509,-10.23123 -2.168112,-4.99974 -3.467996,-9.04255 -4.258631,-13.24504 -0.660941,-3.51308 -0.66676,-9.7137 -0.01256,-12.51247 2.021716,-8.63849 7.593271,-16.7105 14.695524,-21.29064 4.31073,-2.77992 7.76466,-3.96018 13.312269,-4.54895 9.936226,-1.05454 19.527538,0.79532 29.413633,5.67303 7.875704,3.88579 14.261234,8.74123 20.796964,15.81364 7.16643,7.7549 12.11117,14.38912 16.35987,21.94957 1.041,1.85244 4.18046,8.04039 4.18046,8.23979 0,0.0632 -1.8025,1.33685 -4.00555,2.83018 -2.20305,1.49334 -4.97632,3.41599 -6.16283,4.27253 l -2.15727,1.55739 -0.13795,1.77233 c -0.0758,0.97478 -0.13856,2.21867 -0.13919,2.76421 -0.002,1.69344 -0.44346,1.40894 -1.66039,-1.07051 v 0 z"
     style="fill:#000000;fill-opacity:0.99789894;fill-rule:nonzero;stroke:#000000;stroke-width:2.09318;stroke-linejoin:round;stroke-miterlimit:4;stroke-dasharray:none;stroke-opacity:1" />
  <path
     inkscape:connector-curvature="0"
     id="path5711"
     d="m 151.64858,232.00272 c -0.12936,-0.51364 -0.23515,-1.06936 -0.23515,-1.23493 0,-0.5018 2.76586,-1.64653 3.96919,-1.64279 2.72336,0.008 1.89332,1.37664 -1.86477,3.07373 l -1.6341,0.73791 z"
     style="fill:#000000;fill-opacity:0.99789894;fill-rule:nonzero;stroke:#000000;stroke-width:2.09318;stroke-linejoin:round;stroke-miterlimit:4;stroke-dasharray:none;stroke-opacity:1" />
  <path
     sodipodi:nodetypes="sssssscscssssssssss"
     inkscape:connector-curvature="0"
     id="path5701"
     d="m 293.74067,251.25319 c 0,-0.24989 2.70564,-3.92498 3.53205,-5.55584 10.31562,-20.35687 8.9588,-37.34313 -4.00111,-50.09064 -6.82986,-6.71794 -13.93842,-9.30094 -25.5984,-9.30159 -17.79229,-9.9e-4 -33.61093,7.92596 -48.43045,24.26915 -6.87776,7.58489 -13.33561,17.12335 -15.99235,23.62122 l -1.91987,4.69556 -6.70819,-4.56576 c -3.68951,-2.51116 -6.77452,-4.60706 -6.85559,-4.65755 -0.2439,-0.15196 4.01649,-17.14424 5.68071,-22.65725 3.1979,-10.59357 8.86833,-23.71798 13.96677,-32.32661 4.34552,-7.33733 10.55746,-16.61647 11.12393,-16.61647 0.32072,0 4.13549,-2.07291 8.47724,-4.6065 12.80985,-7.47502 23.8146,-11.46721 35.54608,-12.89499 6.70045,-0.81548 14.76156,0.15071 24.14513,2.89373 19.40236,5.67193 32.90766,17.906 37.47031,33.94329 1.80999,6.36205 2.24912,18.27536 0.96227,26.10721 -1.91833,11.67513 -5.23524,18.1895 -16.04945,31.52069 -5.62753,6.93733 -15.34908,17.20832 -15.34908,16.22235 z"
     style="fill:#000000;fill-opacity:0.99789894;fill-rule:nonzero;stroke:#000000;stroke-width:2.09318;stroke-linejoin:round;stroke-miterlimit:4;stroke-dasharray:none;stroke-opacity:1" />
  <path
     sodipodi:nodetypes="cssscccsscssssccc"
     inkscape:connector-curvature="0"
     id="path5703"
     d="m 225.67886,367.66014 c -4.59243,-0.53198 -8.32905,-1.90173 -15.58915,-5.7146 -8.18911,-4.30079 -9.99973,-5.831 -12.45084,-10.52282 -7.90457,-15.1305 -13.14184,-34.16851 -14.00421,-50.90681 l -0.42805,-8.30823 h 7.25593 7.25591 l 0.42879,5.89128 c 1.2387,17.01858 6.05585,30.79369 14.13074,40.40815 6.35803,7.57023 9.61788,9.28092 17.6967,9.28684 3.99355,0.002 5.09128,-0.25105 8.35096,-1.93221 4.53975,-2.34132 10.32813,-7.85942 14.59625,-14.95003 4.09586,-6.80446 4.2261,-6.06967 4.86981,0.18566 0.95774,9.30664 -3.57397,25.29535 -9.59497,30.59523 -5.39571,4.7495 -13.80189,6.97727 -22.51787,5.96759 v 0 z"
     style="fill:#000000;fill-opacity:0.99789894;fill-rule:nonzero;stroke:#000000;stroke-width:2.09318;stroke-linejoin:round;stroke-miterlimit:4;stroke-dasharray:none;stroke-opacity:1" />
  <path
     sodipodi:nodetypes="ssscsssccccsss"
     inkscape:connector-curvature="0"
     id="path5705"
     d="m 100.90426,347.23231 c -6.341175,-1.54374 -11.533614,-7.83562 -13.852916,-16.78606 -0.522981,-2.01822 -1.591757,-5.88156 -1.591757,-6.23526 0,-0.35373 1.971731,2.10686 3.598297,3.11795 3.466342,2.1548 9.230009,3.109 13.716486,2.27083 6.88299,-1.28588 11.19282,-5.07912 15.36663,-13.52481 2.82125,-5.70875 3.99314,-9.96936 4.94432,-17.976 l 0.69987,-5.89128 h 7.73245 7.73244 l -0.27037,2.56799 c -0.14883,1.41239 -0.41577,4.93104 -0.59346,7.81921 -1.45936,23.72094 -12.75195,40.8361 -29.2511,44.33333 -4.36906,0.92609 -5.50382,0.96801 -8.23089,0.3041 z"
     style="fill:#000000;fill-opacity:0.99789894;fill-rule:nonzero;stroke:#000000;stroke-width:2.09318;stroke-linejoin:round;stroke-miterlimit:4;stroke-dasharray:none;stroke-opacity:1" />
  <path
     inkscape:connector-curvature="0"
     id="path5707"
     d="m 162.11429,403.84014 c -6.03919,-7.29721 -12.04246,-15.33654 -14.05141,-18.81703 -1.93382,-3.35034 -3.67162,-9.24784 -5.7461,-19.50031 l -1.73177,-8.55877 2.40661,-4.59276 c 9.01529,-17.2047 14.40863,-37.62676 14.40863,-54.55857 v -5.60502 h 5.13601 5.136 v 58.91294 c 0,32.40212 -0.0973,58.91294 -0.21614,58.91294 -0.11889,0 -2.5227,-2.78703 -5.34183,-6.19342 z"
     style="fill:#000000;fill-opacity:0.99789894;fill-rule:nonzero;stroke:#000000;stroke-width:2.09318;stroke-linejoin:round;stroke-miterlimit:4;stroke-dasharray:none;stroke-opacity:1" />
  <path
     inkscape:connector-curvature="0"
     id="path5713"
     d="m 198.73235,240.48846 c -3.04491,-2.50639 -6.67452,-4.78743 -10.23618,-6.43292 -1.50183,-0.69384 -1.84455,-0.93667 -1.7536,-1.24246 0.0622,-0.20911 0.17896,-0.6685 0.25955,-1.02099 0.0806,-0.35249 0.18609,-0.71164 0.23454,-0.79811 0.12476,-0.22265 13.2971,8.69462 13.62336,9.22254 0.1145,0.18524 -0.34238,1.51114 -0.51888,1.5061 -0.0624,-0.002 -0.78632,-0.55714 -1.60879,-1.23416 z"
     style="fill:#000000;fill-opacity:0.99789894;fill-rule:nonzero;stroke:#000000;stroke-width:2.09318;stroke-linejoin:round;stroke-miterlimit:4;stroke-dasharray:none;stroke-opacity:1" />
  <path
     inkscape:connector-curvature="0"
     id="path5715"
     d="m 167.31996,218.66082 c -0.37131,-0.39712 -0.76062,-1.14951 -0.86511,-1.67201 -0.15803,-0.78972 -0.044,-1.0858 0.67511,-1.75469 l 0.86513,-0.8047 0.0929,1.24052 c 0.0511,0.68227 0.0511,1.79678 0,2.47669 l -0.0929,1.23618 z"
     style="fill:#000000;fill-opacity:0.99789894;fill-rule:nonzero;stroke:#000000;stroke-width:2.09318;stroke-linejoin:round;stroke-miterlimit:4;stroke-dasharray:none;stroke-opacity:1" />
  <path
     inkscape:connector-curvature="0"
     id="path5822"
     d="m 168.42346,227.16458 c -0.19257,-0.071 -0.48886,-0.32269 -0.691,-0.58701 -0.1999,-0.26144 -0.52317,-0.89651 -0.6416,-1.26052 -0.2022,-0.6215 -0.25725,-1.28387 -0.14526,-1.74887 0.0862,-0.35841 0.0188,-0.68702 -0.28382,-1.38957 -0.66069,-1.53194 -2.47286,-4.08052 -3.52717,-4.96054 -0.50923,-0.42502 -0.73533,-0.48651 -1.16219,-0.31613 -0.76382,0.30491 -1.83744,1.07979 -3.2271,2.32914 -0.97334,0.87505 -1.75544,1.44854 -2.41353,1.7698 -0.41297,0.20158 -0.65686,0.25836 -0.79746,0.18567 -0.18692,-0.0967 -0.4371,-0.31923 -0.55013,-0.48947 -0.23274,-0.35055 -0.1819,-0.6658 0.16683,-1.03554 0.34941,-0.37041 0.86626,-0.67086 1.7464,-1.01523 1.32918,-0.52007 2.44181,-1.07625 3.38506,-1.69212 0.41686,-0.2722 0.95635,-0.68935 1.20073,-0.9285 0.51088,-0.49989 0.47574,-0.96786 -0.15615,-2.07934 -1.1296,-1.98684 -1.84819,-2.91742 -2.90874,-3.76684 -0.61594,-0.49329 -0.83618,-0.74402 -1.05222,-1.19769 -0.11387,-0.23915 -0.12454,-0.28557 -0.12496,-0.53966 -2.8e-4,-0.2331 0.0146,-0.30797 0.0866,-0.4636 0.1909,-0.40739 0.54469,-0.65491 0.96634,-0.6762 0.29834,-0.0146 0.47113,0.0611 0.67997,0.29985 0.19132,0.2188 0.33742,0.50299 0.50724,0.98714 0.38805,1.10626 1.63328,3.2911 2.6283,4.61152 0.3729,0.49485 0.92914,1.05356 1.16677,1.17199 0.2685,0.13375 0.42232,0.12036 0.79068,-0.0687 0.7256,-0.37242 1.6803,-1.07999 3.0345,-2.24899 1.05653,-0.91204 1.43868,-1.18987 1.99507,-1.45047 0.57744,-0.27046 1.05519,-0.33842 1.28435,-0.18273 0.16767,0.11408 0.28089,0.35098 0.32501,0.68078 0.0314,0.23419 0.0289,0.28327 -0.0209,0.38613 -0.0789,0.16641 -0.28924,0.37581 -0.64497,0.64236 -0.26466,0.19843 -0.47361,0.30686 -1.52788,0.79362 -1.32722,0.6128 -1.74543,0.82495 -2.24382,1.13819 -0.7153,0.44957 -1.3596,1.02511 -1.52113,1.35876 -0.26158,0.54038 0.026,1.70488 0.80401,3.25718 0.63369,1.26407 1.35954,2.33711 2.06532,3.05317 0.3833,0.38885 0.54378,0.49156 1.23384,0.78961 0.62709,0.27083 1.20293,0.54824 1.41204,0.68024 0.15971,0.10089 0.55427,0.52072 0.71057,0.75618 0.29011,0.43709 0.38566,0.74804 0.32247,1.04937 -0.0678,0.32302 -0.30008,0.71446 -0.64532,1.08738 -0.19634,0.21206 -1.10457,0.90777 -1.35823,1.0404 -0.15531,0.0812 -0.68026,0.0988 -0.86946,0.0291 z"
     style="fill:#000000;fill-opacity:0.99789894;fill-rule:nonzero;stroke:#000000;stroke-width:1.04659;stroke-miterlimit:4;stroke-dasharray:none;stroke-opacity:1" />
  <path
     inkscape:connector-curvature="0"
     id="path5894"
     d="m 199.96025,282.62595 c -0.21742,-0.3518 -0.19279,-3.00383 0.0412,-4.43467 0.16704,-1.02136 0.95263,-2.05788 1.55975,-2.05788 0.71786,0 0.96408,1.04351 0.87305,3.69998 -0.0961,2.80496 -0.24193,3.09125 -1.57811,3.09884 -0.38726,0.002 -0.79039,-0.13563 -0.89586,-0.30627 z"
     style="fill:#000000;fill-opacity:0.99789894;fill-rule:nonzero;stroke:#000000;stroke-width:2.09318;stroke-linejoin:round;stroke-miterlimit:4;stroke-dasharray:none;stroke-opacity:1" />
  <path
     sodipodi:nodetypes="ccsssssccssssssssscsssssccsscscscsscsssssscccssssssssccccssssssssccccscsssssssssssscccsssscccssscscccsscsssscccccssssssccscssscccccccccsccscscccccccccsssssscscsscccccccccscccccsssscccscccssssccccccsccccscsccscssccccsssccccccccccccccccsccscssssccccccccscsccssssscsccccscccccccssssscscccccccccsccsscssssccsccccsssccccscsscccscccscscsccccccscccccsscccscccccccccccccssscccssccccccsscsssccccccccccccccsscssssssscssscccccccccsccccsccscccccccssccccscsccccccsccsccccscccccccsccccccsccccccccccccccccccccsccccccccccsscccccccsccccsscccccccscscccscscscccscscsscccccccccccccccccssssssccscsccsscccsscssccccscsscccsscsccscccccscssccsssccccssssccccsscsscsccssccccsssccssssccccccssssccsscccccccsccccssssscccccsssscccccssccscccscccccssssccccccssccscccc"
     inkscape:connector-curvature="0"
     id="path4466"
     d="m 168.25795,27.382644 c -0.36333,-0.03376 -0.74194,-0.008 -1.112,0.06541 -0.7401,0.146543 -1.52429,0.490182 -2.42023,0.915765 -1.79189,0.851163 -3.93406,2.230338 -6.41035,3.990118 -4.95261,3.519559 -11.1248,8.59257 -17.33412,14.259766 -12.41863,11.334385 -25.06713,24.720082 -29.04283,32.509651 -10.00394,19.60059 -10.98579,46.276096 -2.42024,66.262126 1.06671,2.48893 1.91181,4.45143 2.42024,5.88706 0.26617,0.7516 0.22037,0.91727 0.32706,1.37365 -0.44413,-0.32874 -0.74536,-0.54961 -1.43906,-1.17741 -7.10667,-6.43146 -23.479646,-12.25721 -37.219299,-13.54024 -23.707466,-2.21385 -43.775316,7.43237 -55.403771,22.95953 -11.6284548,15.52716 -14.8033852,36.90737 -5.16753,57.95483 2.673824,5.8404 9.138433,14.53297 15.568002,21.91294 3.214784,3.68998 6.372781,7.04126 9.092236,9.48471 1.359728,1.22173 2.639245,2.22689 3.728471,2.94353 1.089226,0.71664 1.983117,1.24282 3.008941,1.24282 0.636787,0 1.087929,-0.30127 1.504471,-0.65411 0.416542,-0.35285 0.775125,-0.78668 1.112,-1.30824 0.673731,-1.04313 1.259444,-2.42716 1.635295,-3.9247 0.927884,-3.69697 3.651191,-7.96896 7.129883,-11.57789 3.478692,-3.60893 7.727234,-6.557 11.643295,-7.84941 11.583431,-3.8229 27.502144,0.58515 38.789176,10.98918 6.80151,6.26942 10.43202,10.34889 12.49365,15.89506 1.54623,4.15962 2.20039,9.26542 2.48565,16.74541 7.5e-4,0.0188 -7.3e-4,0.0463 0,0.0653 -0.14003,1.53788 -0.54862,2.37517 -1.17741,2.61647 -0.84596,0.32463 -1.17741,1.59272 -1.17741,4.448 0,2.85534 0.33145,4.18882 1.17741,4.51341 0.8127,0.31191 1.24282,1.60995 1.24282,3.99012 v 1.83153 c -0.61769,16.53877 -3.63683,25.28082 -10.85835,33.09836 -2.415,2.61431 -6.45735,4.12387 -10.596709,4.31717 -4.139361,0.19341 -8.363894,-0.96014 -10.989177,-3.336 -0.96171,-0.87032 -1.655619,-1.54338 -2.354824,-2.02776 -0.699205,-0.48438 -1.417792,-0.83122 -2.224,-0.78494 -0.806208,0.0463 -1.520191,0.53715 -2.093177,1.112 -0.572986,0.57485 -1.123889,1.32165 -1.83153,2.28941 -1.059189,1.44854 -1.729382,3.55855 -2.224,6.08329 -0.494618,2.52475 -0.789965,5.46242 -0.850353,8.43812 -0.120776,5.95138 0.578198,12.00221 2.420236,15.568 4.162763,8.05823 12.609505,12.98835 22.109174,14.456 9.49968,1.46766 20.12983,-0.51201 28.71577,-6.27953 l 7.91483,-5.23294 1.89694,10.33506 c 1.23037,6.65407 3.43442,14.2704 5.16753,17.46495 1.65813,3.05633 6.26936,9.31945 10.98918,15.24094 2.35991,2.96076 4.73888,5.83301 6.73741,8.11106 1.99852,2.27804 3.50197,3.87556 4.57882,4.64423 0.77684,0.55453 1.79113,0.53044 2.68188,0.26165 0.89076,-0.26878 1.80767,-0.74297 2.81271,-1.43906 2.01008,-1.39215 4.31071,-3.5625 6.73741,-6.21412 4.85341,-5.30323 10.06663,-12.54147 13.47483,-19.36188 4.45212,-8.90948 5.75186,-15.51948 6.08329,-22.43624 l 0.26165,-5.95247 c 2.0605,1.78728 4.8578,3.63484 8.3073,5.23294 0.0239,0.0126 0.0417,0.0525 0.0653,0.0653 5.63923,3.04785 12.35554,6.60659 20.80095,6.60659 10.05997,0 16.98845,-2.99517 21.38965,-7.12988 5.3876,-5.06139 8.69568,-15.15253 9.74635,-23.94071 0.52532,-4.39408 0.51974,-8.43427 -0.32706,-11.44706 -0.42341,-1.5064 -1.06641,-2.83622 -2.02776,-3.72847 -0.96136,-0.89226 -2.31648,-1.29746 -3.72848,-1.04659 -9.6351,1.71184 -15.43843,2.40035 -19.29647,1.89694 -3.85804,-0.50341 -5.89099,-2.03806 -8.63435,-5.29835 -6.6378,-7.88856 -9.09948,-16.53361 -9.48471,-34.66824 0.16159,-0.24258 0.39073,-0.44122 0.65412,-0.58871 1.75657,-0.98304 1.87044,-8.42474 0.13082,-9.09224 -0.39797,-0.15259 -0.66647,-0.6012 -0.85035,-1.50447 0.0146,-7.56658 0.16766,-13.27394 1.30823,-18.11906 1.425,-6.05307 4.31727,-11.06405 10.66212,-17.66118 10.6333,-11.05657 21.62765,-14.36599 35.97648,-10.92376 10.5957,2.54187 17.23643,8.56798 21.97835,20.016 0.77569,1.8727 1.69518,3.56502 2.61647,4.84047 0.46065,0.63773 0.90415,1.15784 1.37365,1.56988 0.4695,0.41205 0.9597,0.78495 1.70071,0.78495 1.00087,0 1.79264,-0.48359 2.8127,-1.17742 1.02007,-0.69382 2.16849,-1.69727 3.46683,-2.87811 2.59667,-2.36167 5.69842,-5.59494 8.83059,-9.15765 6.26435,-7.12543 12.65957,-15.48867 15.43718,-21.06259 7.12783,-14.30373 7.86601,-36.36062 1.56988,-49.90919 -8.23492,-17.72064 -26.04031,-28.79424 -51.47907,-32.248 -12.29699,-1.66954 -30.78466,3.40673 -45.0033,12.10118 -2.73389,1.67171 -5.31826,3.15486 -7.2607,4.25176 -0.57037,0.32208 -0.92682,0.54348 -1.37365,0.78495 0.0915,-0.24193 0.0848,-0.37627 0.19613,-0.65412 0.72261,-1.80248 1.86883,-4.29434 3.20518,-7.06447 7.76227,-16.0904 11.37685,-29.85873 10.5967,-42.58307 -0.78014,-12.724336 -6.0022,-24.383603 -15.50259,-36.041885 -3.26039,-4.000961 -12.89859,-12.727833 -23.02494,-21.324238 -10.12635,-8.596396 -20.56175,-16.880568 -25.37977,-19.754355 -0.33516,-0.199919 -0.68325,-0.293306 -1.04658,-0.327059 z m -1.24282,2.354824 1.17741,179.686142 c -0.64876,0.32858 -1.30066,0.79565 -1.89694,1.43905 -1.01697,1.09735 -2.20706,1.96236 -2.61647,1.96236 -0.9507,0 -3.00913,-3.1306 -3.40141,-5.16753 -0.20262,-1.05201 -0.95374,-1.56988 -2.28941,-1.56988 -2.99785,0 -2.95934,2.77961 0.0653,6.01788 l 2.48565,2.68188 -1.76612,1.43906 c -0.96968,0.78521 -2.25665,1.43906 -2.8127,1.43906 -1.53621,0 -2.84984,2.00635 -2.28942,3.46682 0.73381,1.91227 3.60724,1.54613 5.75624,-0.71953 1.03367,-1.08975 2.24847,-1.96235 2.61647,-1.96235 1.1901,0 3.3687,3.4451 3.3687,5.56 0,1.13136 0.42686,2.97551 1.01389,3.43411 0.66218,0.51731 0.82362,0.41671 0.82362,0.41671 0,0 -3.37658,0.1394 -7.29939,0.1394 h -7.06447 l -1.96235,1.30824 c -6.6567,-28.79673 -18.56673,-50.25768 -36.36894,-74.89648 0.0406,-0.14882 0.12328,-0.32105 0.13082,-0.45788 0.0517,-0.93044 -0.24781,-1.88476 -0.78494,-3.40141 -0.53713,-1.51666 -1.34539,-3.50993 -2.42024,-6.01789 -8.27514,-19.30846 -7.32233,-45.470263 2.35483,-64.430593 3.58467,-7.023403 16.25619,-20.668592 28.58494,-31.920945 6.16436,-5.626165 12.23424,-10.690663 17.07247,-14.128942 2.41911,-1.719139 4.55084,-3.034882 6.14871,-3.793883 0.56183,-0.266878 0.96294,-0.397568 1.37365,-0.523294 z m 2.09318,0.392471 c 4.66674,2.915619 14.45183,10.69207 24.20235,18.969414 10.09068,8.566116 19.92133,17.494833 22.82871,21.06259 9.30666,11.420561 14.22879,22.558061 14.9793,34.799067 0.75051,12.241 -2.73185,25.64018 -10.40047,41.53647 -1.35276,2.80415 -2.4549,5.32381 -3.20518,7.1953 -0.34339,0.85652 -0.61399,1.53503 -0.78494,2.09317 l -0.13083,-0.0653 c -17.98444,24.86409 -25.08994,44.32408 -31.26682,73.06494 -1.74351,-0.71249 -3.36301,-0.78521 -6.99906,-0.78494 l -8.35423,-0.11931 0.4394,-0.20764 1.30824,-1.04659 c 2.22603,-1.79138 0.37342,-4.09982 -1.37365,-5.23294 l -0.0653,-7.71859 c 1.3973,-0.18546 2.20217,-1.94992 1.56989,-3.59765 -0.27036,-0.70452 -0.84192,-1.11162 -1.56989,-1.17741 z M 64.972767,139.69466 c 2.753951,-0.08 5.558221,-0.006 8.438118,0.26164 13.289286,1.24096 29.619325,7.32922 35.976475,13.08236 0.93781,0.97642 2.46304,1.8844 3.336,2.42023 17.95521,24.82368 29.80106,46.15782 36.36895,75.09272 l -13.21318,8.896 c -3.70562,-8.39245 -10.81764,-20.37812 -20.99718,-30.67812 -0.0105,-0.0126 -0.0546,0.0126 -0.0653,0 -13.13305,-14.61785 -32.843239,-24.79967 -52.983534,-22.04377 -14.832857,1.43856 -26.350185,14.42136 -29.108238,28.45412 v 0.0653 c -2.039759,12.94196 3.665299,25.02604 9.484707,35.91106 -0.89701,-0.61903 -1.889573,-1.42112 -3.074353,-2.48565 -2.620595,-2.35463 -5.787843,-5.6458 -8.961413,-9.28847 C 23.826669,232.09675 17.39687,223.37457 14.932866,217.99244 5.5933837,197.5923 8.715587,177.07057 19.904161,162.13079 29.694157,149.05848 45.695279,140.2541 64.972872,139.69455 Z m 203.038143,0.13082 c 1.62422,-0.001 3.14822,0.0674 4.57882,0.26165 24.98165,3.39172 41.9526,14.02422 49.84377,31.00518 5.89508,12.68555 5.19169,34.50892 -1.56988,48.07765 -2.57465,5.16663 -8.92081,13.63003 -15.11012,20.67012 -3.09466,3.52003 -6.12847,6.6823 -8.63435,8.96141 -1.17114,1.06516 -2.21687,1.88382 -3.07436,2.48565 5.84681,-10.9227 11.59907,-23.04163 9.55012,-36.04189 v -0.0653 c -2.75405,-14.0129 -14.2412,-26.98421 -29.04283,-28.45423 -0.0218,-0.002 -0.0435,0.002 -0.0653,0 -20.10279,-2.72301 -39.8646,7.39385 -52.98354,21.97836 -0.0209,0.0228 -0.045,0.0429 -0.0653,0.0653 -6.55882,6.48743 -14.69686,16.23805 -20.016,30.67812 -1.11428,-0.78454 -2.36087,-1.70476 -2.68188,-1.89694 -3.26211,-2.36573 -6.69714,-4.6529 -8.63435,-5.95247 -1.1523,-0.77301 -2.02488,-1.28935 -2.81271,-1.76612 6.08363,-28.49311 12.95741,-47.43232 30.28565,-71.6913 0.29179,0 0.4164,-0.0946 0.52329,-0.13082 0.10697,-0.0362 0.21642,-0.0825 0.32706,-0.13083 0.22131,-0.0965 0.47114,-0.1664 0.78494,-0.32705 0.62762,-0.32116 1.43391,-0.81668 2.42024,-1.37365 1.97263,-1.11395 4.57428,-2.63449 7.32612,-4.31718 12.10032,-7.39915 27.68121,-12.02861 39.05083,-12.03576 z M 69.289944,188.42643 c 16.778653,0.29218 32.927766,9.27874 44.087536,21.7167 v 0.0653 c 10.10127,10.20964 17.17774,22.33219 20.73553,30.48189 l -1.17741,0.78494 c -5.40333,3.64499 -11.58894,7.69274 -11.38165,8.11106 0.0105,0.0209 -0.0812,2.52165 -0.13082,5.16753 -0.32807,0.0605 -0.55932,0.22081 -0.78495,0.39247 -2.23687,-5.92277 -6.14429,-10.33987 -12.95153,-16.61459 -11.786297,-10.86424 -28.317056,-15.52857 -40.882354,-11.38165 -4.382232,1.44626 -8.823451,4.56511 -12.493648,8.37271 -3.670197,3.80759 -6.589027,8.25371 -7.653177,12.49365 -0.324233,1.29184 -0.859961,2.47526 -1.373647,3.27058 -0.15657,0.24246 -0.249989,0.36286 -0.392471,0.5233 -6.058428,-11.21777 -12.050397,-23.45562 -10.073413,-36.17271 0.0042,-0.022 -0.0042,-0.0433 0,-0.0653 2.613206,-13.16507 13.513716,-25.42496 27.211297,-26.75341 h 0.06531 c 2.411005,-0.32991 4.798336,-0.43421 7.195295,-0.39247 z m 197.805196,0 c 2.39696,-0.0417 4.78429,0.0626 7.1953,0.39247 13.69023,1.32774 24.59059,13.59639 27.21129,26.75341 1.99759,12.67438 -3.97148,24.85279 -10.008,36.04189 -0.21817,-0.23718 -0.4039,-0.43854 -0.65411,-0.78494 -0.79579,-1.1017 -1.70199,-2.71402 -2.42024,-4.448 -4.91206,-11.85871 -12.27142,-18.51955 -23.41741,-21.19342 -14.8985,-3.5741 -26.94145,0.0772 -37.93883,11.51247 -6.17538,6.42091 -9.32498,11.69157 -10.92377,17.72659 -0.11094,-0.0324 -0.20848,-0.0653 -0.32706,-0.0653 -0.0458,0 -0.0864,-0.004 -0.13082,0 0.0917,-1.66182 0,-4.23347 0,-4.64424 0,-0.20304 -8.04958,-6.01554 -10.79294,-7.84941 -0.33596,-0.22458 -1.03091,-0.77163 -1.70071,-1.24282 5.18643,-14.39671 13.23518,-23.97764 19.75436,-30.41648 l 0.0653,-0.0653 c 11.15977,-12.43797 27.30888,-21.42452 44.08754,-21.7167 z m -108.71436,18.83859 c 0.65838,0 1.01389,0.91472 1.17741,1.50447 0.32706,0.93678 2.90918,5.69082 4.05553,5.69082 0.39184,0 1.91302,-1.04797 3.40141,-2.35482 0.45211,-0.39695 0.80663,-0.71384 1.17741,-0.98118 0.4586,-0.37083 1.5182,-0.94873 2.09318,-0.78494 0.29909,0.12706 0.45788,0.45539 0.45788,1.04659 0,0.12936 -0.1775,0.36999 -0.45788,0.5887 l -0.52329,0.39248 c -0.65015,0.29476 -1.21233,0.55802 -1.83153,0.85035 -1.54245,0.64447 -2.96924,1.67462 -3.20518,2.28941 -0.49022,1.27761 2.02607,5.85497 3.53223,6.73741 0.71095,0.32486 1.54646,0.62896 2.09318,0.98118 0.13166,0.12601 0.27538,0.25139 0.39247,0.39247 0.79265,0.95505 0.79265,1.46516 0,2.42024 -0.0975,0.11763 -0.20973,0.21903 -0.32706,0.32705 l -0.98117,0.71953 c -0.31446,0.23061 -0.88332,0.17541 -1.112,0.0653 -0.91388,-0.48112 -1.74228,-2.53253 -1.37365,-3.66306 0.3661,-1.12269 -3.44868,-6.672 -4.57882,-6.672 -0.57619,0 -2.1898,1.10514 -3.59765,2.42024 -1.40785,1.31516 -2.87628,2.20606 -3.27059,1.96235 -1.30307,-0.80533 -0.72074,-1.80792 1.50447,-2.61647 1.20709,-0.43861 2.88645,-1.32228 3.72847,-1.96235 1.50127,-1.14125 1.49911,-1.20653 -0.26165,-4.05553 -0.98756,-1.59789 -1.8863,-2.224 -2.25671,-2.51837 -0.37043,-0.26164 -1.01387,-0.94419 -1.01387,-1.60258 0,-0.65843 0.519,-1.17741 1.17741,-1.17741 z m 9.81176,6.99906 0.0653,5.69082 c -0.72652,-0.6254 -1.4058,-1.31506 -1.70071,-1.96235 -0.73882,-1.62154 -0.62385,-2.17276 0.65412,-3.13977 0.28273,-0.21392 0.63794,-0.41493 0.98118,-0.5887 z m 13.99812,14.52141 c 0.67103,-0.0431 1.69125,0.30284 2.94353,0.85035 -0.20304,0.95332 -0.38717,1.83811 -0.5887,2.81271 -1.81669,-0.8231 -3.15294,-1.7675 -3.27059,-2.35482 -0.16453,-0.82128 0.17373,-1.26049 0.91576,-1.30824 z m -27.14588,0.0653 c 3.79476,0 2.39177,2.09269 -2.68189,3.99012 -0.17415,0.0651 -0.40216,0.18713 -0.5887,0.26164 -0.18588,-0.88363 -0.39329,-1.74661 -0.58871,-2.61647 1.83499,-1.03022 3.26126,-1.63529 3.8593,-1.63529 z m 4.90588,0.78504 c 0.99392,0 1.24282,1.5531 1.24282,9.09224 0,7.09756 -0.30709,9.23143 -1.24282,10.008 -1.05335,0.87419 -1.17741,-0.16285 -1.17741,-9.02682 0,-8.42224 0.17645,-10.07342 1.17741,-10.07342 z m 3.20518,0 h 5.82164 5.75624 v 8.3073 c 0,7.84757 -0.0959,8.23485 -1.56988,7.84941 -1.45558,-0.38062 -1.43048,-0.5055 -0.26165,-2.28941 1.14185,-1.74265 1.12609,-2.10586 -0.0653,-3.92471 -1.40132,-2.13868 -4.23399,-2.62218 -6.93364,-1.17741 -1.82944,0.97915 -2.05172,4.16239 -0.39248,5.82165 1.02598,1.02597 1.00569,1.22139 -0.32705,1.56988 -1.40882,0.36842 -1.53491,-0.15196 -1.76612,-7.84941 z m 15.17553,0 c 1.00271,0 1.17741,1.64497 1.17741,10.33506 0,5.70621 -0.0959,10.40047 -0.26165,10.40047 -1.16362,0 -2.04978,-2.75619 -2.15859,-6.80282 -0.28789,-10.7075 -0.003,-13.93271 1.24283,-13.93271 z m 8.83059,0.98118 c 0.92032,0.51027 1.87419,1.11416 2.94353,1.83153 0.83865,0.56262 5.91441,4.11788 11.05459,7.71859 -0.22312,0.62343 -0.50752,1.25622 -0.71953,1.89694 -4.24275,-3.77728 -9.18195,-6.90577 -13.93271,-8.76518 0.19299,-0.93701 0.4601,-1.76536 0.65412,-2.68188 z m -37.87342,0.98118 c 0.16955,0.76675 0.36095,1.51169 0.52329,2.28941 -2.37194,1.08956 -5.06703,2.55508 -6.86823,3.72847 -1.75538,1.14354 -3.83968,2.8332 -5.88706,4.70965 -0.27044,-0.70245 -0.51777,-1.38401 -0.85035,-2.15859 1.84967,-1.21038 4.04925,-2.71111 5.36376,-3.59765 3.01156,-2.03109 5.55605,-3.66486 7.71859,-4.97129 z m 7.12988,1.24282 -0.0653,15.76424 c -0.004,16.96637 -0.0262,17.09539 -3.53224,7.91482 -1.1236,-2.94215 -1.22084,-3.9866 -0.45788,-4.90588 1.39994,-1.68683 0.73161,-4.57326 -1.24282,-5.29836 -3.50218,-1.28617 -6.77355,3.31539 -3.99012,5.62542 0.98749,0.81956 0.87319,1.65061 -0.91577,5.88706 -2.8045,6.64144 -3.40141,7.1057 -3.40141,2.68188 0,-2.79992 -0.45617,-4.18466 -1.76612,-5.49459 -0.96518,-0.96518 -1.74368,-2.65919 -1.76612,-3.72847 -0.0888,-4.23293 -5.62541,-4.23228 -5.62541,0 0,1.04952 -0.7091,2.48971 -1.56988,3.20518 -1.05595,0.87777 -1.73748,2.68776 -2.02777,5.56 l -0.39247,4.25176 -0.91576,-3.53223 c -0.50707,-1.92206 -0.67319,-4.0795 -0.32706,-4.77506 0.34613,-0.69557 1.16623,-2.29544 1.76612,-3.59765 1.55429,-3.37408 9.98253,-11.72386 14.456,-14.32518 2.08719,-1.21373 5.59157,-2.89545 7.784,-3.72847 z m 25.51059,0 3.8593,1.43906 c 8.74858,3.32417 18.8497,12.14099 22.30541,19.49271 1.38297,2.9421 1.57311,4.09502 0.91577,6.47576 -0.43812,1.58671 -0.88211,2.87812 -0.98118,2.87812 -0.0992,0 -0.19613,-1.40875 -0.19613,-3.13976 0,-2.1102 -0.5558,-3.7372 -1.7007,-4.9713 -0.93911,-1.01234 -1.81412,-2.74135 -1.96236,-3.79388 -0.59218,-4.20547 -5.86006,-4.1437 -5.95247,0.0653 -0.0224,1.0503 -0.71507,2.67119 -1.56988,3.66306 -0.85481,0.99188 -1.74286,3.45462 -1.96235,5.42918 l -0.39248,3.59765 -2.28941,-5.56 c -2.03664,-4.9799 -2.12815,-5.72126 -1.04659,-6.80283 1.4956,-1.49559 0.90564,-4.18352 -1.17741,-5.29835 -1.16098,-0.62132 -2.07783,-0.56049 -3.53223,0.39247 -2.22045,1.45488 -2.37875,2.63045 -0.78494,4.90588 0.98816,1.41087 0.86831,2.07168 -0.71953,5.56 -0.99192,2.17917 -1.97483,4.50908 -2.224,5.16753 -0.24907,0.65839 -0.48866,-5.74656 -0.5233,-14.19435 z m -13.344,6.47577 c 0.68998,-0.0496 1.47303,0.22053 2.15859,1.04658 0.79265,0.95504 0.79265,1.46519 0,2.42024 -0.54644,0.65843 -1.47472,1.17741 -2.09317,1.17741 -0.61845,0 -1.38265,-0.51898 -1.6353,-1.17741 -0.74504,-1.94161 0.25267,-3.37217 1.56988,-3.46682 z m -34.14494,2.02776 c 0.38037,0.89678 0.6932,1.70311 0.98118,2.48565 -2.77725,2.70486 -5.20538,5.56354 -6.14871,7.32612 -0.92866,1.73522 -1.15305,1.78495 -2.02777,0.5887 -0.87168,-1.19208 -1.05039,-1.17211 -2.02776,0.65412 -0.83941,1.56848 -0.84901,2.38226 -0.13082,3.53224 0.73524,1.17739 0.57861,2.50103 -0.71953,6.34494 -0.57533,1.70365 -1.03412,3.07814 -1.37365,3.9247 -0.12664,-1.35248 -0.33721,-2.59495 -0.5233,-3.79388 -0.035,-1.66977 -0.0772,-3.77456 -0.0653,-3.99012 1.68923,-0.52492 1.44144,-3.59679 -0.45789,-3.72847 0.0513,-2.71715 0.14443,-5.09454 0.32706,-5.23294 1.21966,-0.92554 4.98026,-3.32028 7.12989,-4.77506 1.77622,-1.20211 3.23153,-2.15202 5.0367,-3.336 z m 68.48612,0.0653 c 5.26137,3.6828 10.71213,7.43919 12.23201,8.43812 0.14526,0.21189 0.13459,2.95405 0.19613,4.57882 -1.25334,0.24907 -1.657,1.5523 -0.71953,2.68188 0.24812,0.29899 0.46851,1.00919 0.5887,1.96236 -0.31261,2.22626 -0.49313,4.59446 -0.5887,7.19529 l -1.24283,-3.92471 c -1.20678,-3.78011 -1.44799,-5.55935 -0.85035,-6.54117 0.58996,-0.96914 0.50646,-1.97259 -0.32706,-3.53224 -0.87725,-1.64145 -1.2437,-1.85032 -1.43906,-0.85035 -0.37757,1.93286 -1.09345,1.66139 -3.07435,-1.24283 -1.66699,-2.44395 -3.20713,-4.31797 -5.56,-6.54117 l 0.13082,-0.32706 c 0.20681,-0.64227 0.43622,-1.27255 0.65412,-1.89694 z m -34.60282,5.75623 c 7.60277,0 11.18541,4.48108 11.18541,13.8673 v 6.08329 h -10.33506 -10.40047 v -6.86823 -6.86824 l 3.13976,-3.07435 c 2.60779,-2.60781 3.61115,-3.13977 6.41036,-3.13977 z m -18.70777,0.78494 c 0.66504,0 1.17741,0.74861 1.17741,1.6353 0,0.88675 -0.51237,1.56988 -1.17741,1.56988 -0.66507,0 -1.24282,-0.68313 -1.24282,-1.56988 0,-0.88669 0.57775,-1.6353 1.24282,-1.6353 z m 38.59295,0.0653 c 0.29233,-0.0147 0.54751,0.22975 0.85035,0.71953 0.39172,0.63381 0.54349,1.41593 0.32706,1.76612 -0.55767,0.90233 -1.6592,0.82314 -2.28942,-0.19613 -0.2949,-0.4772 -0.11428,-1.25932 0.39248,-1.76612 0.3047,-0.30468 0.49219,-0.51199 0.71953,-0.52329 z m 12.75529,2.42024 c 0.0345,-0.004 0.0285,-9.7e-4 0.0653,0 0.26763,0.006 0.59567,0.20283 0.91576,0.52329 0.57314,0.57318 0.6109,0.9714 0.0653,1.30824 -0.44685,0.27617 -1.07993,0.1484 -1.37365,-0.32706 -0.4888,-0.79085 -0.19152,-1.44524 0.32706,-1.50447 z m -64.69224,0.13103 c 0.0578,-0.004 0.0735,0 0.13082,0 0.85963,0.0126 1.62699,0.71164 1.17741,1.43906 -0.25254,0.40861 -0.72488,0.78494 -1.112,0.78494 -1.11771,0 -1.74288,-1.47617 -0.85035,-2.02776 0.19927,-0.12329 0.44068,-0.17562 0.65412,-0.19614 z m -9.68094,2.55106 c 0.52005,0 0.98117,0.43442 0.98117,0.98118 0,0.54673 -0.46112,0.98117 -0.98117,0.98117 -0.5201,0 -0.91577,-0.43444 -0.91577,-0.98117 0,-0.54676 0.39567,-0.98118 0.91577,-0.98118 z m 84.83906,0.45788 c 0.43896,0 0.85036,0.34596 0.85036,0.78494 0,0.4389 -0.4114,0.78494 -0.85036,0.78494 -0.43891,0 -0.78494,-0.34604 -0.78494,-0.78494 0,-0.43898 0.34603,-0.78494 0.78494,-0.78494 z m -61.94494,1.17741 2.61647,5.56 c 1.43116,3.07258 2.58662,5.88495 2.61647,6.21412 0.0297,0.32922 -2.24012,0.58871 -5.10212,0.58871 h -5.23294 l 1.50447,-3.00894 c 0.82741,-1.64599 1.97738,-4.39295 2.55106,-6.14871 z m 51.54447,0.39247 c 3.42214,0 4.84047,2.22003 4.84047,7.45695 v 4.51341 h -4.64423 -4.57883 l 0.45789,-4.9713 c 0.52132,-6.04388 1.05431,-6.99906 3.9247,-6.99906 z m -64.82306,0.13083 c 0.21386,-0.0209 0.38889,-0.001 0.5887,0 2.99737,0.0126 4.448,2.50651 4.448,7.65317 v 4.18636 h -4.77506 -4.84047 l 0.0653,-3.79388 c 0.0167,-5.2435 1.40634,-7.74179 4.51341,-8.04565 z m 52.13318,0.52329 c 0.0249,-0.002 0.0494,-0.0209 0.0653,0 0.49461,0.56386 4.70964,10.40566 4.70964,10.98918 0,0.19048 -2.29992,0.32706 -5.10211,0.32706 h -5.10212 l 2.48564,-5.88706 c 1.28967,-3.05037 2.58162,-5.39062 2.94353,-5.42918 z m -61.94495,4.51341 c 0.13962,-0.006 0.24821,0.26393 0.45788,0.85036 0.30485,0.85261 0.81887,2.58679 1.112,3.79388 0.47737,1.96589 0.27904,2.15859 -1.56988,2.15859 -1.59188,0 -1.95528,-0.29658 -1.63529,-1.37365 0.22809,-0.76815 0.67205,-2.43688 0.98117,-3.72847 0.27331,-1.14206 0.47469,-1.69074 0.65412,-1.70071 z m 84.64283,0.26165 0.98118,2.28941 c 0.53552,1.25361 0.96135,2.72193 0.98118,3.27059 0.0209,0.54867 -0.79518,0.98118 -1.83153,0.98118 -1.81642,0 -1.82433,-0.11199 -0.98118,-3.27059 z m -42.58306,8.3073 c 22.82932,0.0299 45.72316,0.45878 45.98448,1.24282 0.26338,0.79038 -9.18233,0.98118 -45.59201,0.98118 -34.00269,0 -43.70241,-0.12015 -45.592,-0.78494 -0.008,-0.14862 -0.0574,-0.31105 -0.0653,-0.45789 2.77201,-0.67831 23.97815,-1.00903 45.26494,-0.98117 z m -45.13412,3.79388 h 16.28753 16.81082 v 7.19529 7.1953 H 139.6076 123.45089 c 0.0391,-1.94781 0.0829,-3.87263 0.0653,-6.01788 -0.0253,-3.09368 -0.10194,-5.84474 -0.19613,-8.37271 z m 35.45318,0 4.18635,0.0653 h 4.18635 l -2.35482,1.56988 c -7.4992,4.94324 -6.71217,10.22573 1.70071,11.57788 5.10174,0.81992 12.232,-1.70514 12.232,-4.31717 0,-1.63666 -3.93164,-6.21167 -6.41036,-7.45695 l -2.74729,-1.37364 h 4.97129 l 4.9713,-0.0653 v 7.19529 7.1953 h -10.33506 -10.40047 v -7.1953 z m 23.15576,0 h 16.35295 16.22212 c -0.008,2.23149 -0.002,4.60446 0,7.19529 0.002,2.5668 0.0586,4.9327 0.13082,7.1953 h -16.35294 -16.35295 v -7.1953 z m 1.56989,1.56988 v 5.10212 c 0,2.79841 0.27868,5.31539 0.5887,5.62541 0.31004,0.31002 3.05694,0.45416 6.14871,0.32706 l 5.62541,-0.19613 v -5.23294 -5.16753 l -6.1487,-0.19613 z m 17.13788,0 c -1.94224,0.0126 -2.42007,1.36479 -2.61647,5.16753 -0.16662,3.225 0.13689,4.91126 0.85035,5.36377 1.52183,0.96522 4.13193,0.83938 5.23295,-0.26165 0.52672,-0.52673 0.98117,-2.8495 0.98117,-5.16753 0,-3.79323 -0.22334,-4.27322 -1.96235,-4.70965 -1.01463,-0.25467 -1.83823,-0.39653 -2.48565,-0.39247 z m 13.21318,0 -3.40141,0.19613 -3.40141,0.26165 -0.19614,4.31718 c -0.13459,2.36181 -0.0998,4.76277 0.13083,5.36376 0.25897,0.67486 1.67603,1.112 3.66306,1.112 h 3.20517 v -5.62541 z m -90.20283,0.0653 v 5.0367 c 0,2.77993 0.27519,5.3119 0.5887,5.62542 0.31352,0.31351 1.84945,0.45767 3.40141,0.32706 l 2.81271,-0.19613 0.26165,-5.42918 0.19613,-5.36377 h -3.59765 z m 18.3807,0 v 5.0367 c 0,2.77993 0.23057,5.33281 0.5233,5.62542 0.29265,0.29267 2.76837,0.52329 5.49459,0.52329 4.99153,0 6.45722,-0.78151 6.21412,-3.20518 -0.0661,-0.65838 -0.14548,-2.71334 -0.19614,-4.57882 l -0.0653,-3.40141 h -6.01789 z m -6.41035,0.0653 c -0.89883,0.11114 -1.75368,0.44547 -2.224,0.91576 -1.54169,1.54171 -1.20157,8.38736 0.45788,9.35388 2.1637,1.26022 4.86651,0.95288 5.69083,-0.5887 1.00058,-1.87111 0.95815,-7.5202 -0.0653,-8.76518 -0.52195,-0.63467 -1.71781,-0.90771 -2.94353,-0.91576 -0.30642,-0.002 -0.61615,-0.0371 -0.91576,0 z m 32.83671,0.71953 c 4.15098,0 9.29038,5.29644 7.19529,7.39153 -1.24474,1.24474 -10.51396,1.68548 -12.29741,0.5887 -0.76815,-0.47237 -1.37365,-1.53779 -1.37365,-2.35482 0,-1.84325 4.34789,-5.62541 6.47577,-5.62541 z m -16.0913,0.78494 v 3.59764 3.59765 h -4.38258 -4.44801 l 0.26165,-3.40141 0.26165,-3.336 4.18635,-0.26165 z m 41.53648,0 v 3.59764 3.59765 h -3.99012 -3.99012 v -3.46682 -3.46683 l 3.99012,-0.13082 z m 16.35294,0 c 1.26951,0 2.10672,2.51884 1.83153,5.42917 -0.10675,1.129 -0.67308,1.76612 -1.56988,1.76612 -1.15836,0 -1.43906,-0.68091 -1.43906,-3.59765 0,-2.63968 0.30866,-3.59764 1.17741,-3.59764 z m -83.53083,0.13082 c 0.28496,-0.0105 0.64168,0.16159 1.24282,0.39247 0.85201,0.32693 1.30824,1.50077 1.30824,3.59765 0,2.57484 -0.31249,3.07435 -1.6353,3.07435 -1.3597,0 -1.56988,-0.53836 -1.56988,-3.59765 0,-2.63656 0.0283,-3.44627 0.65412,-3.46682 z m 74.96189,0 c 0.81824,10e-4 0.98118,0.74362 0.98118,3.40141 0,3.13893 -0.2384,3.66306 -1.6353,3.66306 -1.41553,0 -1.57989,-0.38835 -1.37364,-3.336 0.17205,-2.46032 0.62596,-3.46866 1.63529,-3.66306 0.14443,-0.0276 0.27559,-0.0661 0.39247,-0.0653 z m -65.5426,0.32706 c 0.0923,-0.0324 0.22234,0 0.32706,0 0.8378,0 1.2673,0.96217 1.43906,3.336 0.21694,2.99858 0.0532,3.40141 -1.43906,3.40141 -1.49226,0 -1.7214,-0.40283 -1.50447,-3.40141 0.15029,-2.0771 0.53073,-3.10895 1.17741,-3.336 z m -15.24094,1.37365 c 0.049,-0.0224 0.0716,0.0839 0.13083,0.39247 0.19027,0.9876 0.19027,2.61004 0,3.59764 -0.19027,0.98828 -0.32706,0.14385 -0.32706,-1.83132 0,-1.35794 0.0885,-2.10818 0.19613,-2.15858 z m 95.69742,0.26164 c 0.20639,0.25317 0.45789,1.06955 0.45789,2.15859 0,0.98011 -0.20911,1.83848 -0.39247,2.224 -0.008,-0.84792 -0.0649,-1.59734 -0.0653,-2.48565 -4e-4,-0.68413 8.2e-4,-1.2405 0,-1.89694 z m -67.70118,10.72753 c 5.7113,-0.0339 12.37003,0 19.88518,0 30.06065,0 45.85365,0.26213 45.85365,0.78494 0,0.5228 -15.793,0.78495 -45.85365,0.78495 -27.02565,0 -42.47137,-0.22935 -45.33036,-0.65412 0.004,-0.0913 -0.002,-0.16997 0,-0.26165 2.06398,-0.30667 10.61779,-0.56599 25.44518,-0.65412 z m -25.576,3.13977 h 16.09129 c -0.18336,14.87133 -2.53651,32.02269 -11.51247,43.76047 h -0.0653 v 0.0653 c -2.32901,3.3359 -6.49826,6.92402 -11.51247,9.35388 -4.99478,2.42045 -10.77035,3.65737 -16.352941,2.55106 -0.01884,-0.006 -0.04689,0.006 -0.06531,0 -4.647647,-1.50286 -7.943647,-5.00581 -10.33506,-9.4847 -2.26871,-4.24909 -3.601624,-9.3241 -4.448,-14.12895 0.06824,0.0421 0.05107,0.0105 0.130823,0.0653 0.526832,0.36497 1.274368,0.97211 2.224001,1.83153 3.178844,2.8768 7.848303,4.07318 12.428236,3.8593 4.579941,-0.21389 9.118131,-1.81288 12.035771,-4.9713 7.31347,-7.91708 10.57701,-17.04813 11.38165,-32.90212 z m 18.18447,0 h 13.73647 c -0.12705,4.10512 -0.26788,8.19797 -0.45788,12.29741 -0.82344,13.47508 -5.4082,26.86408 -6.73741,30.74353 -0.5076,1.48147 -2.36261,6.30842 -4.38259,10.85836 -1.01,2.27497 -2.08338,4.47649 -3.00894,6.21412 -0.46278,0.86881 -0.87288,1.60209 -1.24283,2.15859 -0.36994,0.55649 -0.72024,0.93437 -0.78494,0.98117 l 0.0653,0.0653 -0.13082,0.0653 -9.22306,6.21411 c -8.10319,5.44325 -18.22069,7.27608 -27.2113,5.88706 -8.990614,-1.38901 -16.816206,-6.01024 -20.60471,-13.344 -1.465202,-2.83629 -2.27522,-8.84032 -2.158588,-14.58682 0.0584,-2.87326 0.38638,-5.6773 0.850353,-8.04565 0.463974,-2.36835 1.123073,-4.26407 1.83153,-5.23294 0.476783,-0.65203 0.777824,-1.04016 1.112,-1.43906 0.87522,4.84043 2.211294,9.95645 4.578824,14.39059 2.566967,4.80767 6.326878,8.83465 11.643295,10.53129 h 0.06531 c 6.170496,1.24356 12.464486,-0.10026 17.791996,-2.68188 5.32751,-2.58168 9.70299,-6.35733 12.29742,-10.07341 9.47443,-12.38962 11.79251,-29.9139 11.97035,-45.0033 z m 15.82965,0 h 10.53129 v 118.98401 c -0.82368,-0.77822 -1.648,-1.51391 -3.07435,-3.13976 -1.96683,-2.24192 -4.32844,-5.10541 -6.672,-8.04565 -4.68712,-5.88049 -9.35933,-12.2714 -10.79294,-14.91389 -1.38979,-2.56169 -3.77237,-10.39226 -4.9713,-16.87623 L 140.1963,356.4036 c 0.33408,-0.32447 0.66166,-0.63137 0.98118,-1.112 0.42958,-0.64619 0.82534,-1.44825 1.30824,-2.35483 0.96579,-1.81317 2.05213,-4.04244 3.07435,-6.34494 2.04443,-4.60499 3.94256,-9.32307 4.51341,-10.98918 1.33055,-3.88338 5.95586,-17.47239 6.80283,-31.33223 v -0.0653 c 0.19173,-4.13827 0.33057,-8.2341 0.45788,-12.36283 z m 12.62447,0 h 10.92377 c 0.12831,4.26918 0.32536,8.54943 0.52329,12.82071 0.84696,13.85984 5.47228,27.44885 6.80283,31.33223 0.57085,1.66611 2.46898,6.38419 4.51341,10.98918 1.02222,2.3025 2.04315,4.59718 3.00894,6.41036 0.48289,0.90657 0.94406,1.70864 1.37365,2.35482 0.25986,0.3909 0.52712,0.62986 0.78494,0.91576 l -0.39247,7.78401 c -0.32265,6.73322 -1.48147,12.835 -5.82165,21.52047 -3.28895,6.58174 -8.49627,13.74991 -13.21318,18.904 -2.35844,2.57704 -4.55322,4.71153 -6.34494,5.95247 -0.84497,0.58521 -1.61378,0.92954 -2.15859,1.112 z m 13.01694,0 h 15.24095 c 0.14317,15.17616 3.14481,31.9038 12.62447,44.34918 0.0188,0.0239 0.0473,0.0417 0.0653,0.0653 2.47704,3.54033 5.19382,6.90319 8.896,9.09223 3.72847,2.2046 8.43588,3.12338 14.52141,1.89694 h 0.0653 0.0653 c 10.11005,-3.22642 16.0975,-13.07333 21.45506,-21.58588 0.1302,0.0827 0.33041,0.0126 0.45789,0.13082 0.54376,0.50469 1.08037,1.40574 1.43906,2.68189 0.71737,2.55229 0.83124,6.44487 0.32706,10.66212 -1.00839,8.43449 -4.49887,18.32119 -9.15765,22.69788 -3.97042,3.73002 -10.29971,6.54118 -19.95059,6.54118 -7.8935,0 -14.24233,-3.36003 -19.88518,-6.41036 h -0.0653 c -4.21675,-1.9441 -7.90342,-4.53434 -9.35388,-6.21411 l -0.13083,-0.13083 0.0653,-0.0653 c -0.0647,-0.0469 -0.41499,-0.42468 -0.78494,-0.98117 -0.36995,-0.55649 -0.78004,-1.28978 -1.24282,-2.15859 -0.92556,-1.73763 -1.99895,-4.00456 -3.00895,-6.27953 -2.01997,-4.54994 -3.87499,-9.31148 -4.38258,-10.79294 -1.32706,-3.87318 -5.90318,-17.2905 -6.73742,-30.74354 -0.001,-0.0216 0.001,-0.0437 0,-0.0653 -0.19466,-4.21036 -0.39561,-8.46697 -0.52329,-12.68989 z m 17.33412,0 h 14.58683 c 0.89238,14.05064 3.62341,22.10551 9.68094,29.30447 2.8817,3.42471 5.5914,5.45013 9.94259,6.01789 4.19579,0.54747 9.963,-0.17437 19.03483,-1.76612 -5.18989,8.21285 -10.87215,16.95354 -19.62354,19.81976 -5.6877,1.14625 -9.78034,0.31714 -13.08235,-1.63529 -3.30201,-1.95243 -5.87492,-5.085 -8.3073,-8.56894 v -0.0653 c -9.09912,-11.89883 -12.09104,-28.16185 -12.232,-43.10636 z"
     style="fill:#000000;stroke-width:2.09318;fill-opacity:0.99789894;stroke:#000000;stroke-opacity:1" />
  <path
     style="fill:#000000;fill-opacity:0.99789894;fill-rule:nonzero;stroke:#000000;stroke-width:0.0625;stroke-linejoin:round;stroke-miterlimit:4;stroke-opacity:1;stroke-dasharray:none"
     d=""
     id="path5898"
     inkscape:connector-curvature="0" />
  <path
     style="fill:#000000;fill-opacity:0.99789894;fill-rule:nonzero;stroke:#000000;stroke-width:0.0625;stroke-linejoin:round;stroke-miterlimit:4;stroke-opacity:1;stroke-dasharray:none"
     d=""
     id="path5900"
     inkscape:connector-curvature="0" />
</svg>
